<svg width="386" height="803" viewBox="0 0 386 803" fill="none" xmlns="http://www.w3.org/2000/svg">
    <g clip-path="url(#clip0_827_59)">
        <mask id="mask0_827_59" style="mask-type:luminance" maskUnits="userSpaceOnUse" x="-3" y="604" width="82" height="100">
            <path d="M78.59 604H-3V703.34H78.59V604Z" fill="white"/>
        </mask>
        <g mask="url(#mask0_827_59)">
            <path d="M23.5294 624.95C21.0694 619.63 15.3594 620.02 12.1694 624.42C11.5394 625.29 10.8494 626.28 10.1594 627.34C4.65939 631.15 1.57939 640.58 2.34939 646.41C2.69939 649.02 5.03939 652.03 8.13939 650.82C13.4794 648.73 17.9294 645.35 20.9394 640.4C23.5194 636.19 25.7394 629.73 23.5294 624.95Z" fill="#EF3467"/>
            <path d="M50.3489 604.15C46.6889 603.27 43.2589 606.37 41.0089 609.28C38.8289 610.97 37.3789 613.81 37.3989 616.47C36.9289 618.61 37.0989 620.75 38.7689 622.18C39.3389 622.67 40.0789 623.05 40.8389 623.05C42.3289 624.1 44.1689 624.59 46.1389 624.16C52.8489 622.67 59.7789 606.42 50.3489 604.15Z" fill="#EF3467"/>
            <path d="M46.4687 644.4C45.4887 642.08 42.1987 641.75 40.2687 642.77C38.1687 643.88 36.0587 645.56 34.3387 647.59C33.3387 648.32 32.4687 649.25 31.7987 650.32C29.7487 653.63 28.8387 657.9 29.9587 661.67C31.1187 665.56 35.2987 667.02 38.7887 665.26C46.4287 661.41 49.7287 652.14 46.4687 644.4Z" fill="#EF3467"/>
            <path d="M14.2293 678.27C10.5893 674.35 5.36922 676.27 2.35922 679.87C0.0692201 682.62 -1.56078 685.98 -2.13078 689.49C-4.39078 694.07 -2.05078 700.38 2.54922 702.47C4.48922 703.35 7.02922 703.87 8.92922 702.47C12.8293 699.61 15.8793 695.55 16.7893 690.69C17.5493 686.66 17.1593 681.43 14.2293 678.27Z" fill="#EF3467"/>
            <path d="M47.9702 680.16C44.4902 675.53 38.9702 678.11 36.2502 681.95C34.0002 685.12 31.4602 690.14 31.9602 694.15C31.9602 694.17 31.9702 694.19 31.9702 694.21C31.9702 694.29 31.9702 694.36 31.9802 694.44C32.4702 699.87 37.2802 702.45 42.1702 700.29C45.5102 698.81 47.7402 694.61 48.5402 691.22C49.3702 687.69 50.3102 683.28 47.9702 680.16Z" fill="#EF3467"/>
            <path d="M78.5483 635.27C78.1483 631.12 75.1483 627.09 70.7083 626.89C66.9083 626.72 63.1783 629.88 63.3383 633.81C63.3483 634.06 63.3883 634.31 63.4483 634.56C62.4083 638.32 62.9783 642.55 65.0683 645.8C67.1783 649.1 72.8383 649.8 74.7783 645.8C76.4683 642.32 78.9383 639.41 78.5483 635.27Z" fill="#EF3467"/>
            <path d="M67.0094 663.17C65.1894 665.23 63.2995 668.08 62.9095 670.98C62.6095 671.35 62.2994 671.73 61.9894 672.15C60.2394 674.46 61.5494 678.42 63.9694 679.7C66.5394 681.06 70.0494 680.43 71.5194 677.72C72.5694 676.15 73.2195 674.02 73.7995 672.2C74.3995 670.33 74.6694 668.36 74.8294 666.41C75.1394 662.51 69.5595 660.29 67.0094 663.17Z" fill="#EF3467"/>
        </g>
        <mask id="mask1_827_59" style="mask-type:luminance" maskUnits="userSpaceOnUse" x="71" y="1" width="54" height="65">
            <path d="M125 1H71V66H125V1Z" fill="white"/>
        </mask>
        <g mask="url(#mask1_827_59)">
            <path d="M88.5602 14.7079C86.9321 11.2269 83.1529 11.4821 81.0416 14.3611C80.6247 14.9304 80.168 15.5782 79.7113 16.2717C76.0712 18.7647 74.0327 24.9349 74.5423 28.7496C74.774 30.4574 76.3227 32.4269 78.3744 31.6351C81.9087 30.2676 84.8539 28.056 86.846 24.8171C88.5536 22.0625 90.0229 17.8356 88.5602 14.7079Z" fill="#501782"/>
            <path d="M106.311 1.09856C103.889 0.522757 101.619 2.55115 100.13 4.45521C98.6866 5.56101 97.7269 7.41928 97.7401 9.15976C97.4291 10.56 97.5416 11.9603 98.6469 12.8959C99.0241 13.2165 99.5139 13.4652 100.017 13.4652C101.003 14.1522 102.221 14.4728 103.525 14.1915C107.966 13.2165 112.553 2.58386 106.311 1.09856Z" fill="#501782"/>
            <path d="M103.741 27.4354C103.093 25.9174 100.915 25.7015 99.6381 26.3689C98.2483 27.0952 96.8518 28.1944 95.7134 29.5227C95.0515 30.0003 94.4757 30.6088 94.0323 31.309C92.6755 33.4748 92.0732 36.2687 92.8145 38.7355C93.5822 41.2808 96.3488 42.2361 98.6586 41.0845C103.715 38.5654 105.899 32.4998 103.741 27.4354Z" fill="#501782"/>
            <path d="M82.4043 49.5965C79.9952 47.0316 76.5404 48.2879 74.5482 50.6434C73.0326 52.4428 71.9538 54.6413 71.5766 56.938C70.0808 59.9347 71.6295 64.0635 74.674 65.431C75.958 66.0068 77.6391 66.3471 78.8966 65.431C81.4778 63.5597 83.4964 60.9031 84.0987 57.7231C84.6017 55.0862 84.3436 51.6641 82.4043 49.5965Z" fill="#501782"/>
            <path d="M104.736 50.8335C102.433 47.804 98.7793 49.4922 96.9791 52.0047C95.49 54.0789 93.8089 57.3636 94.1398 59.9874C94.1398 60.0005 94.1464 60.0136 94.1464 60.0267C94.1464 60.079 94.1464 60.1248 94.153 60.1772C94.4773 63.7301 97.6608 65.4183 100.898 64.0049C103.108 63.0365 104.584 60.2884 105.113 58.0703C105.663 55.7605 106.285 52.875 104.736 50.8335Z" fill="#501782"/>
            <path d="M124.974 21.4611C124.709 18.7457 122.723 16.1088 119.785 15.9779C117.27 15.8667 114.801 17.9343 114.907 20.5058C114.913 20.6694 114.94 20.833 114.98 20.9966C114.291 23.4568 114.669 26.2246 116.052 28.3511C117.448 30.5103 121.194 30.9684 122.478 28.3511C123.597 26.0741 125.232 24.17 124.974 21.4611Z" fill="#501782"/>
            <path d="M117.337 39.7167C116.132 41.0646 114.881 42.9294 114.623 44.827C114.425 45.0691 114.22 45.3177 114.014 45.5925C112.856 47.104 113.723 49.6951 115.325 50.5326C117.026 51.4225 119.349 51.0103 120.322 49.2371C121.017 48.2098 121.447 46.8161 121.831 45.6252C122.228 44.4017 122.407 43.1126 122.512 41.8367C122.718 39.2849 119.025 37.8323 117.337 39.7167Z" fill="#501782"/>
        </g>
        <mask id="mask2_827_59" style="mask-type:luminance" maskUnits="userSpaceOnUse" x="-9" y="395" width="196" height="207">
            <path d="M184.213 601.356L186.545 397.369L-6.44246 395.162L-8.77487 599.149L184.213 601.356Z" fill="white"/>
        </mask>
        <g mask="url(#mask2_827_59)">
            <path d="M-7.87655 599.129C-4.00135 598.228 -0.35024 596.643 3.3462 595.151C7.12029 593.629 10.8645 592.014 14.5634 590.305C21.9923 586.872 29.1804 582.863 36.1703 578.62C36.7463 578.27 37.307 577.904 37.883 577.554C38.0536 577.51 38.2238 577.496 38.41 577.436C39.8214 577.034 41.248 576.663 42.6739 576.338C45.1851 575.747 47.7415 575.265 50.2968 574.876C53.3012 574.414 56.3043 574.077 59.337 573.848C59.3349 574.034 59.379 574.22 59.5007 574.392C60.8252 576.19 62.7301 577.25 64.6977 578.233C66.9419 579.359 69.2494 580.362 71.6047 581.241C76.0691 582.888 80.6775 584.103 85.3848 584.792C90.1848 585.482 95.083 585.709 99.9244 585.485C104.178 585.286 108.589 584.794 112.4 582.745C118.467 579.483 122.221 570.212 115.816 565.242C112.721 562.836 108.567 562.386 104.799 562.048C100.135 561.638 95.4363 561.569 90.7492 561.825C85.3348 562.135 79.9305 562.91 74.645 564.121C72.1959 564.682 69.7612 565.336 67.341 566.083C66.0998 566.471 64.8583 566.891 63.632 567.327C62.235 567.822 61.2366 568.601 60.021 569.455C59.647 569.714 59.5951 570.194 59.7609 570.568C56.3581 570.715 52.969 571.017 49.5929 571.536C48.5089 571.694 47.4399 571.899 46.371 572.088C56.6378 565.186 66.4024 557.58 75.618 549.317C77.2112 547.894 78.7738 546.44 80.3211 544.97C80.5212 545.05 80.7373 545.083 80.9542 545.039C83.0324 544.458 84.9036 543.054 86.9376 542.287C89.3289 541.369 91.7654 540.545 94.2019 539.736C97.5227 538.642 100.873 537.642 104.238 536.72C105.449 537.633 107.009 537.728 108.569 537.932C111.116 538.255 113.679 538.548 116.242 538.763C120.984 539.159 125.79 539.322 130.526 538.818C138.374 538.009 146.286 535.543 152.557 530.624C155.443 528.364 158.32 525.545 157.376 521.552C156.476 517.761 153.075 515.118 149.66 513.638C142.106 510.375 133.491 512.089 126.506 515.93C122.321 518.222 118.592 521.217 115.016 524.369C113.157 526.021 111.329 527.72 109.409 529.294C107.708 530.701 106.057 531.828 104.631 533.439C100.429 534.569 96.2413 535.776 92.1133 537.155C90.1424 537.814 88.1714 538.489 86.2305 539.226C97.9123 527.551 108.523 514.841 117.893 501.249C119.751 500.976 121.475 500.299 123.338 499.576C125.993 498.553 128.619 497.451 131.198 496.272C133.934 495.017 136.608 493.684 139.252 492.258C141.179 492.729 143.023 492.363 145.068 491.968C147.671 491.471 150.244 490.88 152.788 490.165C157.224 488.899 161.48 487.088 165.419 484.669C172.861 480.136 179.802 473.397 183.695 465.507C185.405 462.024 186.519 457.869 185.388 454.044C184.852 452.255 183.774 450.523 182.256 449.405C180.186 447.894 177.94 448.318 175.644 448.973C166.741 451.583 159.777 457.609 154.344 464.955C151.361 468.965 148.776 473.259 146.008 477.412C144.624 479.488 143.193 481.548 141.671 483.514C140.102 485.526 137.995 487.3 136.917 489.627C136.901 489.643 136.901 489.674 136.901 489.689C134.63 490.888 132.314 492.023 129.982 493.097C127.589 494.201 125.15 495.227 122.697 496.175C122.091 496.416 121.47 496.626 120.88 496.852C126.072 488.992 130.864 480.88 135.211 472.515C136.95 469.172 138.628 465.782 140.244 462.329C143.468 460.259 146.27 457.207 148.714 454.353C151.644 450.93 154.176 447.194 156.37 443.267C161.088 434.844 165.25 425.098 165.269 415.304C165.28 410.346 163.866 405.556 162.343 400.874C161.805 399.21 161.083 397.497 159.186 397.073C157.32 396.664 155.575 397.837 154.385 399.172C152.913 400.813 152.099 403.035 151.195 405.009C150.148 407.337 149.163 409.696 148.285 412.073C146.451 416.995 144.94 422.061 143.784 427.193C142.513 432.85 141.814 438.56 141.223 444.318C140.911 447.274 140.583 450.246 139.993 453.168C139.78 454.204 139.537 455.224 139.293 456.244C137.912 459.389 136.47 462.519 134.95 465.616C127.844 480.055 119.415 493.828 109.807 506.72C109.744 506.797 109.681 506.874 109.618 506.966C110.085 505.391 110.505 503.799 110.94 502.255C112.408 496.91 113.722 491.516 114.65 486.057C114.816 485.051 114.982 484.046 115.117 483.04C115.351 482.903 115.493 482.657 115.481 482.331C115.484 482.068 115.456 481.835 115.412 481.602C117.305 480.958 118.084 479.091 118.985 477.382C120.091 475.256 121.044 473.051 121.827 470.797C123.314 466.552 124.307 462.116 124.637 457.626C125.263 448.862 123.833 440.059 117.445 433.617C114.755 430.905 110.555 427.711 106.515 428.146C102.692 428.551 99.8118 431.726 98.0747 434.93C93.9525 442.553 95.6838 452.042 98.5637 459.761C100.258 464.305 102.45 468.669 105.047 472.775C106.413 474.944 107.905 477.022 109.505 479.024C110.252 479.947 111.012 481.056 111.93 481.903C111.199 487.66 110.052 493.365 108.643 498.99C107.508 503.579 105.924 508.241 105.02 512.942C93.3811 527.685 80.2249 541.218 65.8027 553.249C66.4498 552.095 67.0507 550.908 67.6517 549.722C69.1387 546.764 70.4109 543.679 71.6058 540.578C73.9638 534.452 75.8448 528.136 77.2324 521.705C77.298 521.38 77.3637 521.04 77.4293 520.715C77.5069 520.685 77.5845 520.655 77.6625 520.594C83.7949 515.628 87.3502 507.548 88.5975 499.861C89.8623 492.003 88.8754 483.67 85.3242 476.516C81.9393 469.69 74.6144 462.679 66.7213 467.502C58.7969 472.354 59.3465 482.418 61.5762 490.223C63.0777 495.462 64.9201 500.644 66.8873 505.718C67.9086 508.333 68.9612 510.918 70.1535 513.457C71.2852 515.888 72.6374 517.949 74.19 520.074C74.1084 520.445 74.0578 520.816 73.9763 521.187C72.6205 527.541 70.7559 533.78 68.4141 539.844C67.2191 542.945 65.8396 545.966 64.4601 548.988C63.2076 551.717 61.8327 554.32 60.9496 557.192C54.1785 562.585 47.1483 567.65 39.8749 572.355C38.8315 573.025 37.7729 573.663 36.7297 574.318C35.6583 574.724 34.8014 575.303 33.7428 575.942C33.5405 576.064 33.446 576.217 33.3667 576.387C30.9227 577.862 28.4485 579.275 25.9592 580.657C27.4459 579.078 28.8713 577.451 30.205 575.731C33.7825 571.123 36.9156 566.169 39.5567 560.977C39.6647 560.993 39.7884 560.995 39.8971 560.95C43.6518 559.768 46.651 555.711 48.9889 552.701C51.4991 549.491 53.6114 545.935 55.2925 542.22C58.8132 534.465 60.6337 525.327 57.4188 517.155C55.1503 511.395 47.7545 502.462 40.7353 506.566C37.9028 508.223 36.536 511.477 35.6821 514.504C34.4577 518.829 33.8033 523.331 33.5511 527.807C33.277 532.856 33.5437 537.926 34.399 542.895C34.834 545.41 35.5018 547.851 36.0919 550.322C36.6671 552.746 36.7928 555.273 36.8416 557.769C36.8538 558.048 36.9754 558.235 37.144 558.361C37.0017 558.638 36.8747 558.931 36.7322 559.224C34.185 564.309 31.1616 569.14 27.6934 573.657C25.9515 575.915 24.102 578.125 22.2225 580.258C21.0165 581.623 19.2221 583.075 18.2904 584.784C17.6528 585.118 17.0149 585.467 16.3773 585.801C12.4271 587.848 8.44666 589.848 4.40574 591.723C0.193888 593.674 -4.2143 595.22 -8.30479 597.373C-9.0526 597.876 -8.91504 599.366 -7.87655 599.129Z" fill="#B88FD3"/>
        </g>
        <mask id="mask3_827_59" style="mask-type:luminance" maskUnits="userSpaceOnUse" x="-14" y="570" width="360" height="233">
            <path d="M345.546 606.716L7.49023 570.41L-13.5457 766.284L324.51 802.589L345.546 606.716Z" fill="white"/>
        </mask>
        <g mask="url(#mask3_827_59)">
            <path d="M340.505 641.118C326.469 635.123 311.323 633.042 296.136 633.7C280.439 634.377 265.022 637.863 249.811 641.626C244.137 643.034 238.479 644.461 232.829 645.981C226.421 646.437 220.053 647.37 213.707 648.433C209.158 649.18 204.633 650.039 200.116 650.989C199.102 650.953 198.087 650.935 197.071 650.917C216.566 640.927 235.96 630.363 252.44 615.797C257.58 611.243 262.379 606.308 266.712 600.977C267.59 599.908 266.853 597.975 265.324 598.175C239.265 601.445 217.469 618.147 199.926 636.687C194.413 642.509 188.907 648.441 184.013 654.766C167.694 658.864 151.6 663.913 135.849 669.835C137.406 668.694 138.946 667.551 140.484 666.426C146.23 662.155 151.799 657.666 157.21 652.959C168.133 643.448 178.31 633.093 187.606 621.99C192.921 615.638 197.934 609.053 202.643 602.254C203.48 601.054 202.822 599.403 201.256 599.434C185.306 599.757 170.634 609.665 158.577 619.254C145.467 629.675 134.068 642.261 125.067 656.376C122.53 660.373 120.198 664.502 118.073 668.726C116.391 672.034 114.745 675.346 113.657 678.881C95.9618 686.666 78.759 695.612 62.2044 705.626C64.6549 703.11 67.0572 700.533 69.4218 697.97C74.6872 692.249 79.7346 686.358 84.5658 680.281C94.1667 668.193 102.899 655.394 110.688 642.076C115.095 634.536 119.176 626.815 122.965 618.937C123.48 617.865 122.633 616.284 121.319 616.507C106.077 619.031 93.5794 628.664 83.6829 640.12C72.2291 653.39 62.9268 669.127 56.0396 685.213C53.9804 690.007 52.199 694.921 50.6832 699.901C49.1712 704.845 47.8049 709.786 47.4866 714.948C43.3612 717.667 39.3019 720.447 35.2708 723.303C27.8751 728.56 20.6539 734.053 13.593 739.745C15.6351 736.294 17.6271 732.801 19.5313 729.281C23.5855 721.812 27.2619 714.139 30.6945 706.367C37.5143 690.91 43.1731 674.927 47.6138 658.615C50.1354 649.346 52.3574 639.99 54.1342 630.551C54.3359 629.519 53.1982 628.27 52.123 628.808C44.5481 632.519 38.9695 638.789 34.0528 645.493C28.5803 652.973 23.6979 660.88 19.4851 669.149C15.1593 677.624 11.557 686.468 8.69361 695.537C6.16344 703.533 4.06107 711.775 3.21595 720.151C2.40036 728.422 2.90169 736.78 6.01398 744.51C5.85931 744.766 5.72068 745.042 5.58398 745.299C4.49091 745.327 4.02426 746.458 4.29918 747.451C2.43978 749.032 0.596409 750.633 -1.23094 752.254C-5.20579 755.77 -9.28647 759.256 -12.8509 763.18C-14.3132 764.786 -12.0508 767.572 -10.2787 766.127C-4.04356 761.019 1.77288 755.411 7.84581 750.121C11.1933 751.771 14.9174 752.789 18.5074 753.701C23.2296 754.899 28.052 755.671 32.8873 756.154C42.436 757.071 52.0703 756.851 61.6169 756.096C79.8306 754.654 98.2454 752.016 115.623 746.178C125.254 742.943 134.49 738.483 142.941 732.868C144.506 731.836 143.879 729.552 142.18 729.134C107.086 720.277 69.4693 721.888 35.3116 733.919C30.6297 735.56 26.0163 737.409 21.4755 739.429C20.9597 739.664 20.4439 739.9 19.9281 740.135C24.0196 736.886 28.1752 733.716 32.3771 730.624C39.3981 725.473 46.5595 720.536 53.8632 715.797C90.6152 715.473 127.347 713.131 163.837 708.655C168.624 708.061 173.452 707.598 178.2 706.691C182.54 705.867 186.806 704.544 190.207 701.639C191.247 700.751 191.64 698.613 189.976 698.034C156.459 686.167 119.458 685.937 85.7102 697.03C100.455 689.147 115.654 682.112 131.197 675.932C132.001 676.399 132.834 676.761 133.896 677.021C135.681 677.485 137.47 677.914 139.277 678.344C142.875 679.184 146.478 679.971 150.092 680.668C157.226 682.07 164.392 683.185 171.602 684.05C186.077 685.787 200.686 686.447 215.269 685.996C223.562 685.742 231.843 685.105 240.084 684.155C241.041 684.04 242.101 683.136 241.89 682.059C241.138 678.235 237.801 676.823 234.337 675.924C230.289 674.872 226.232 673.909 222.151 672.998C213.866 671.145 205.496 669.574 197.058 668.468C182.919 666.641 168.542 666.024 154.344 667.461C163.296 664.461 172.327 661.742 181.452 659.324C185.697 658.199 189.987 657.17 194.254 656.174C200.968 658.785 208.003 660.613 214.881 662.714C222.619 665.09 230.376 667.467 238.115 669.843C250.515 673.646 263.701 677.061 276.489 673.019C278.049 672.533 278.189 670.222 276.718 669.537C257.019 660.28 235.811 654.241 214.167 651.935C217.155 651.347 220.137 650.814 223.122 650.262C223.242 650.329 223.401 650.365 223.567 650.346C224.931 650.166 226.282 649.929 227.632 649.711C227.65 649.713 227.668 649.715 227.684 649.734C228.121 649.89 228.504 649.877 228.959 649.871C229.597 649.849 230.202 649.805 230.844 649.747C232.036 649.639 233.241 649.586 234.43 649.678C235.657 649.755 236.843 650.046 238.065 650.177C239.071 650.285 240.029 650.497 240.969 650.198C247.54 651.104 254.252 651.025 260.861 651.571C268.136 652.171 275.389 652.986 282.646 653.584C295.451 654.632 308.358 654.892 321 652.215C327.935 650.743 334.607 648.334 340.67 644.661C342.025 643.88 341.912 641.723 340.505 641.118ZM17.6416 724.208C15.4364 728.332 13.1793 732.433 10.8362 736.487C9.83305 738.215 8.76006 739.917 7.72298 741.622C3.7373 727.984 6.57842 713.371 10.4873 699.981C15.5506 682.609 23.4573 665.996 33.7742 651.132C38.3759 644.485 43.5012 637.531 50.4713 633.192C44.0802 664.958 32.9355 695.651 17.6416 724.208ZM20.9865 742.629C25.0814 740.87 29.2309 739.281 33.4387 737.825C41.8145 734.945 50.3999 732.65 59.1154 731.006C76.5842 727.704 94.3719 726.507 112.114 728.103C120.319 728.839 128.461 730.168 136.495 731.994C122.706 740.107 107.078 744.879 91.4296 747.814C82.716 749.44 73.8929 750.564 65.0648 751.397C55.6683 752.277 46.1686 752.765 36.7545 752.118C31.5427 751.758 26.3674 751.057 21.2764 749.91C17.9243 749.15 14.7185 748.043 11.4909 746.969C11.5108 746.953 11.5307 746.937 11.5704 746.905C14.7153 745.535 17.8057 743.995 20.9865 742.629ZM50.9277 711.665C50.7429 711.864 50.6299 712.07 50.5709 712.281C50.3623 712.531 50.2218 712.825 50.1691 713.147C50.0517 713.225 49.9343 713.303 49.7989 713.379C50.8338 710.002 51.6751 706.567 52.676 703.168C54.0141 698.66 55.5997 694.215 57.3931 689.865C60.8908 681.318 65.0818 673.083 69.8186 665.179C77.6743 652.085 86.8925 638.993 99.2568 629.764C105.004 625.475 111.429 622.149 118.385 620.48C105.291 646.82 88.6364 671.306 68.9073 693.118C63.1317 699.53 56.8816 705.455 50.9277 711.665ZM106.027 695.288C123.548 692.172 141.644 691.826 159.235 694.497C167.743 695.792 176.161 697.768 184.338 700.463C178.426 703.408 170.928 703.53 164.631 704.307C155.628 705.412 146.603 706.387 137.555 707.232C119.367 708.949 101.12 710.187 82.8546 710.933C75.4089 711.242 67.9768 711.425 60.5325 711.552C62.5387 710.296 64.5609 709.059 66.5992 707.843C71.0682 705.815 75.5834 703.865 80.2512 702.186C88.6425 699.162 97.2657 696.854 106.027 695.288ZM120.935 675.738C119.68 676.257 118.443 676.779 117.186 677.316C118.089 675.505 118.94 673.67 119.861 671.861C121.703 668.243 123.683 664.695 125.817 661.235C130.11 654.246 134.93 647.605 140.285 641.384C150.789 629.175 163.331 618.456 177.326 610.456C183.714 606.799 190.602 603.905 197.924 603.056C181.939 625.361 162.649 645.276 140.775 661.86C134.325 666.764 127.491 671.027 120.935 675.738ZM166.959 670.105C182.8 669.953 198.599 672.05 214.104 675.187C218.424 676.069 222.719 677.02 226.985 678.06C229.11 678.579 231.234 679.098 233.355 679.653C234.116 679.843 235.322 680.118 236.325 680.589C208.866 683.364 181.038 682.302 153.898 677.37C149.923 676.653 145.977 675.847 142.039 674.952C140.39 674.575 138.717 674.086 137.056 673.653C137.757 673.383 138.476 673.115 139.177 672.846C140.85 672.498 142.518 672.187 144.217 671.933C151.761 670.872 159.321 670.176 166.959 670.105ZM192.673 649.245C195.043 646.629 197.395 644.01 199.831 641.456C204.603 636.444 209.49 631.536 214.688 626.952C223.96 618.771 234.323 611.599 245.788 606.852C250.77 604.788 255.915 603.233 261.199 602.238C246.25 619.13 226.836 631.237 207.062 641.796C202.302 644.337 197.497 646.783 192.673 649.245ZM270.045 670.601C259.308 672.119 248.211 668.874 237.982 665.831C230.517 663.612 223.056 661.357 215.611 659.122C210.755 657.656 205.913 656.046 201.009 654.683C201.194 654.648 201.382 654.596 201.567 654.561C225.15 655.568 248.495 660.982 270.045 670.601ZM262.436 647.398C254.873 646.767 246.904 645.857 239.462 647.656C239.322 647.605 239.184 647.535 239.044 647.484C249.244 645.218 259.351 642.451 269.59 640.498C284.429 637.658 299.714 636.083 314.786 638.011C321.65 638.893 328.38 640.506 334.771 643.083C312.18 653.648 286.545 649.424 262.436 647.398Z" fill="#FFB3DE"/>
        </g>
        <mask id="mask4_827_59" style="mask-type:luminance" maskUnits="userSpaceOnUse" x="-103" y="0" width="489" height="504">
            <path d="M385.768 429.725L308.715 0.881836L-102.382 74.7461L-25.3292 503.589L385.768 429.725Z" fill="white"/>
        </mask>
        <g mask="url(#mask4_827_59)">
            <path d="M-23.1135 502.491C-20.3936 494.099 -17.5256 485.809 -14.4843 477.617C2.97524 486.297 22.4976 489.424 41.7839 485.751C64.5583 481.426 84.2206 467.864 106.174 460.991C107.207 460.676 107.451 459 106.358 458.548C88.9902 451.536 66.7934 446.661 45.4724 447.382C64.5721 430.111 80.3832 409.985 93.2377 387.694C93.6733 386.942 92.9929 385.898 92.1295 386.002C91.723 386.049 91.3461 386.116 90.9395 386.164C90.8416 386.052 90.6728 385.978 90.506 386.06C90.3894 386.133 90.2979 386.201 90.1768 386.249C52.0074 390.93 16.2282 414.256 -2.36645 447.762C8.54549 423.177 21.4554 399.607 37.2852 377.275C38.4442 375.641 39.667 374.074 40.835 372.49C41.248 372.623 41.7299 372.563 42.0984 372.16C57.6855 356.272 80.5783 347.986 101.168 340.736C105.003 358.188 113.666 376.949 128.762 377.528C129.753 377.557 130.751 377.481 131.731 377.305C135.763 391.664 150.99 422.566 170.524 410.167C174.642 407.535 177.449 404.388 182.283 403.001C182.973 402.799 190.449 402.829 192.65 401.941C195.577 400.768 196.551 400.411 198.147 397.455C202.459 389.554 199.226 379.069 194.671 371.905C198.074 372.512 201.428 372.557 204.739 371.781C227.216 366.524 210.688 342.386 222.096 329.944C231.396 319.773 233.412 309.485 230.694 300.566C240.391 309.786 251.316 316.453 264.104 321.075C264.994 321.407 266.269 320.712 265.836 319.598C258.171 300.761 247.837 283.233 234.557 267.789C224.229 255.78 211.187 241.512 193.892 243.997C193.769 243.89 193.671 243.778 193.548 243.67C213.743 240.871 233.483 242.611 253.028 248.17C253.055 248.32 253.107 248.466 253.18 248.583C253.214 248.628 253.248 248.674 253.257 248.724C252.128 249.368 252.76 251.301 254.038 250.761C254.184 250.709 254.33 250.657 254.447 250.584C263.605 265.032 276.174 276.949 291.145 285.351C309.865 295.852 332.452 296.692 350.284 308.597C351.198 309.21 352.463 308.023 352.082 307.055C344.834 288.947 336.295 270.008 319.526 258.819C317.935 257.758 316.286 256.81 314.621 255.917C327.618 254.774 339.576 250.734 350.873 243.884C351.573 243.447 351.463 242.404 350.774 242.035C318.72 225.171 282.384 218.69 254.426 246.571C253.972 246.497 253.547 246.729 253.274 247.089C239.195 242.207 224.821 240.021 210.256 240.228C223.89 239.747 237.732 238.686 250.425 233.399C263.427 227.953 273.754 218.297 283.995 208.89C284.775 208.179 284.004 206.918 283.081 206.98C253.556 208.528 219.519 213.684 201.561 240.054C201.421 240.286 201.512 240.503 201.69 240.626C198.26 240.88 194.798 241.243 191.337 241.761C191.312 241.765 191.266 241.8 191.241 241.804C188.932 240.068 186.428 238.548 184.112 236.917C176.131 231.328 175.799 226.594 171.574 218.671C164.539 205.5 147.427 211.607 138.464 219.463C121.948 233.937 115.113 257.97 115.193 279.492C111.133 282.735 107.871 287.39 105.35 292.559C95.1388 305.019 84.4011 317.004 73.7271 329.055C79.921 304.773 83.5152 280.026 84.7237 255.138C84.7398 255.083 84.79 255.074 84.7765 254.999C84.7675 254.948 84.7836 254.894 84.7746 254.844C85.0188 254.903 85.3087 254.929 85.567 254.779C120.479 235.574 133.491 197.706 138.048 160.269C138.059 160.189 138.071 160.11 138.082 160.03C138.12 159.66 138.182 159.286 138.22 158.917C138.322 158.043 137.449 157.371 136.653 157.85C109.478 174.784 90.5514 202.545 85.1095 233.611C84.9886 218.213 83.9314 202.801 81.9768 187.448C82.0181 187.389 82.0593 187.329 82.1005 187.27C82.4549 187.077 82.6771 186.726 82.7351 186.327C107.799 148.548 81.9876 104.646 56.9158 74.2426C56.8681 74.1216 56.8204 74.0006 56.7728 73.8796C56.6342 73.5417 56.363 73.3313 56.0892 73.2509C55.9229 73.0475 55.7522 72.819 55.5609 72.6202C54.9004 71.8318 53.3181 71.8311 53.1532 73.0787C50.0537 95.0936 48.244 118.225 50.1235 140.667C37.7079 127.866 21.4474 122.106 4.6496 116.676C3.60458 116.346 3.01254 117.67 3.43779 118.449C19.6842 147.95 39.1371 192.554 80.3075 187.541C80.3868 187.837 80.5871 188.086 80.8861 188.162C83.1966 211.848 83.4158 235.444 81.7151 258.892C72.356 229.034 48.5518 206.696 24.9648 187.3C24.0827 186.577 22.7684 187.202 22.791 188.338C23.3954 211.19 24.6841 234.386 37.1232 254.102C23.7174 243.009 8.49469 233.641 -5.64296 225.116C-6.4889 224.594 -7.80644 225.634 -7.34961 226.588C10.9015 264.359 22.0371 319.839 69.8099 330.64C70.2687 330.739 70.6256 330.415 70.7383 330.032C70.6797 330.717 71.1011 331.185 71.6694 331.316C57.3373 347.549 43.2675 363.942 30.9843 381.905C17.4687 401.671 5.35886 422.765 -4.75041 444.744C-2.35309 424.306 5.15213 404.869 6.74602 384.291C8.14672 366.391 0.348603 353.305 -1.96297 336.253C-2.16081 334.864 -4.04795 334.322 -4.76564 335.669C-24.1075 372.523 -30.6248 416.947 -8.97268 454.158C-15.661 469.769 -21.2953 485.76 -25.6584 502.042C-25.8832 503.533 -23.578 503.948 -23.1135 502.491ZM337.863 299.089C326.105 294.567 313.523 292.681 301.91 287.667C290.411 282.71 279.844 275.434 270.945 266.615C269.963 265.626 257.016 251.599 257.707 250.827C257.835 250.675 269.621 258.094 270.928 258.87C282.584 266.001 294.007 273.564 305.886 280.344C318.081 287.301 334.392 291.031 343.841 301.902C341.316 300.697 338.449 299.32 337.863 299.089ZM346.198 244.283C345.337 250.606 317.691 253.655 311.271 254.161C297.277 247.734 281.283 246.488 265.8 246.497C291.904 238.904 318.926 242.341 346.111 243.651C346.151 243.877 346.217 244.098 346.198 244.283ZM318.079 230.987C322.175 231.988 341.823 237.113 345.54 242.354C316.406 238.855 286.031 235.813 258.271 246.605C257.831 246.607 257.394 246.633 256.979 246.63C274.056 232.392 295.972 225.604 318.079 230.987ZM260.336 248.282C290.49 249.083 319.255 252.545 336.895 280.707C340.244 286.066 345.588 293.58 346.497 299.792C346.634 300.7 348.531 303.314 347.84 303.801C347.84 303.801 347.557 303.67 347.131 303.462C347.149 303.277 347.113 303.076 346.972 302.868C337.379 289.898 320.177 286.406 306.679 278.698C290.32 269.354 274.902 258.467 258.677 248.865C259.267 248.681 259.801 248.481 260.336 248.282ZM269.722 218.814C261.313 225.715 252.241 231.233 241.651 234.224C240.714 234.496 209.636 237.644 209.338 238.293C209.767 237.361 218.766 234.034 219.029 233.909C224.409 231.517 229.812 229.25 235.369 227.267C250.362 221.93 266.395 219.93 278.947 209.667C279.609 211.621 268.547 219.777 269.722 218.814ZM202.444 240.491C218.151 223.104 237.8 214.52 260.8 211.165C263.201 210.812 272.634 208.598 276.948 208.938C266.603 217.042 254.309 219.355 241.945 223.157C229.063 227.104 216.882 232.791 204.711 238.529C203.801 238.951 203.949 240.35 205.061 240.332C204.184 240.36 203.316 240.438 202.444 240.491ZM61.9686 84.608C65.6295 89.3924 69.1784 94.2748 72.4527 99.3619C88.8517 124.949 96.5487 155.804 82.2524 183.641C72.4055 150.346 71.5023 115.005 60.1085 82.1952C60.6458 82.8761 61.256 83.6735 61.9686 84.608ZM52.7384 135.299C51.9139 119.017 52.3636 102.609 54.1967 86.3931C54.8002 80.9461 55.2531 78.5583 56.5107 78.7729C65.6016 102.952 68.4856 128.53 73.037 153.861C73.9707 159.058 74.9547 164.245 76.1101 169.376C77.5728 175.929 82.8878 186.455 70.8951 182.649C53.9556 177.296 53.4328 149.557 52.7384 135.299ZM17.7035 139.235C15.1404 134.642 12.0638 129.934 10.0264 125.092C8.80214 122.176 8.73446 120.788 9.40901 120.356C24.4244 133.622 38.6073 147.452 51.2884 163.03C52.0558 163.98 53.709 162.932 52.912 161.96C40.4312 146.632 26.6168 132.399 10.9824 120.307C13.075 120.838 16.5503 122.857 19.9747 124.159C31.564 128.608 42.0544 134.445 50.5301 143.652C50.9252 147.727 51.4163 151.759 52.0878 155.785C54.3097 169.017 60.8005 181.612 72.9659 185.802C46.8733 183.208 30.0137 161.41 17.7035 139.235ZM132.412 183.906C130.31 192.991 127.408 201.961 123.48 210.415C118.339 221.498 111.372 231.95 102.393 240.301C100.995 241.615 88.8798 251.851 88.173 250.372C87.0139 247.962 94.7441 236.13 96.0217 233.568C107.999 209.569 121.438 186.344 135.93 163.785C137.531 166.633 133.072 180.937 132.412 183.906ZM110.817 183.821C114.189 179.639 128.488 163.075 134.19 162.906C115.652 191.245 99.2285 220.811 85.0741 251.602C86.7252 226.867 95.1232 203.304 110.817 183.821ZM192.937 371.491C199.783 383.322 200.335 395.196 185.715 399.87C181.301 401.285 178.217 402.021 174.146 404.048C165.199 408.532 156.81 410.636 148.364 403.472C140.528 396.82 136.645 386.322 133.638 376.807C139.312 375.036 144.097 370.056 146.196 364.703C146.249 364.564 146.277 364.429 146.33 364.29C148.965 371.021 152.563 377.475 157.019 383.076C154.819 383.964 153.836 387.302 154.211 389.386C154.815 392.75 158.161 394.481 161.362 393.387C164.664 392.276 166.784 388.629 165.257 385.328C163.998 382.651 160.68 380.785 157.758 381.699C153.566 375.118 150.033 368.445 147.243 361.146C148.169 356.626 147.58 352.196 146.122 347.975C147.968 348.291 149.949 347.624 151.053 345.974C151.115 346.171 151.247 346.328 151.425 346.452C162.517 353.763 177.879 367.951 192.937 371.491ZM163.047 385.44C164.464 387.699 163.305 390.343 160.878 391.272C158.744 392.096 156.536 391.067 156.317 388.696C156.11 386.531 157.297 385.488 158.891 384.398C159.515 383.975 159.259 383.27 158.718 383.004C160.428 383.137 162.061 383.854 163.047 385.44ZM229.54 304.972C230.731 314.917 226.84 320.98 220.262 327.967C217.541 330.866 215.021 332.434 213.9 336.445C212.931 339.858 213.716 343.501 214.224 346.908C215.904 358.709 211.671 370.665 197.223 369.218C181.716 367.65 165.252 352.96 152.344 344.784C152.107 344.619 151.872 344.609 151.675 344.671C152.027 343.312 151.707 341.814 150.924 340.633C154.128 341.146 157.541 339.496 158.71 336.332C158.832 335.999 158.904 335.675 158.971 335.326C166.897 339.888 175.287 342.553 184.32 343.599C184.062 346.496 186.052 349.197 188.902 349.903C191.967 350.648 194.685 348.449 195.298 345.514C195.912 342.579 194.312 339.446 191.192 338.97C188.681 338.566 185.668 339.988 184.873 342.489C184.706 342.571 184.569 342.674 184.47 342.847C175.411 341.365 166.926 338.173 159.002 333.48C158.787 331.42 157.609 329.481 155.869 328.316C158.863 328.089 161.625 325.701 162.01 322.651C162.459 318.943 159.473 315.747 155.903 315.508C155.323 315.457 155.305 316.367 155.843 316.477C158.609 317.147 160.976 319.779 160.421 322.756C159.883 325.677 157.155 327.1 154.397 327.051C153.982 327.048 153.819 327.441 153.907 327.787C153.667 328.038 153.609 328.437 154.035 328.646C156.699 329.903 158.492 332.95 157.408 335.866C156.323 338.782 153.078 340.065 150.196 339.183C149.758 339.055 149.506 339.385 149.494 339.75C149.345 339.932 149.29 340.201 149.511 340.421C152.477 343.36 149.309 348.102 145.574 346.518C144.101 342.792 142.008 339.229 139.771 335.873C138.272 322.045 150.132 311.828 150.308 298.372C150.383 298.359 150.488 298.366 150.554 298.302C152.423 296.722 155.534 296.423 157.292 298.413C159.31 300.694 157.872 303.803 155.822 305.389C155.639 305.526 155.6 305.74 155.606 305.92C155.325 306.23 155.479 306.799 156.004 306.834C156.739 306.883 157.485 307.138 158.108 307.57C158.104 307.985 158.382 308.376 158.876 308.236C159.454 308.857 159.854 309.641 159.852 310.496C159.891 312.588 158.011 313.963 156.1 314.151C155.387 314.227 155.234 315.395 155.999 315.465C158.759 315.668 161.367 313.438 161.428 310.602C161.439 309.511 161.083 308.539 160.468 307.716C168.162 305.064 175.913 303.594 184.049 303.116C184.769 304.957 186.657 306.224 188.705 306.219C191.354 306.236 193.29 304.022 193.321 301.451C193.365 298.955 191.64 296.569 189.04 296.389C186.385 296.192 183.706 298.176 183.568 300.871C183.551 301.21 183.763 301.38 184.012 301.465C183.875 301.567 183.746 301.72 183.762 301.95C183.784 302.076 183.807 302.201 183.83 302.327C175.471 302.144 167.124 303.618 159.338 306.623C158.805 306.253 158.234 305.967 157.611 305.819C160.184 304.113 160.71 299.82 158.879 297.428C156.848 294.787 152.593 294.489 150.225 296.755C150.121 295.166 149.912 293.571 149.45 291.866C149.393 291.695 149.341 291.549 149.289 291.403C149.348 291.444 149.428 291.455 149.519 291.387C159.323 284.598 175.56 282.717 186.964 276.029C204.966 276.76 227.059 284.089 229.54 304.972ZM186.389 343.279C186.38 343.229 186.367 343.154 186.358 343.104C187.201 341.734 188.566 340.815 190.297 340.919C192.393 341.035 193.528 342.878 193.208 344.853C192.908 346.644 191.445 348.176 189.53 347.769C187.675 347.402 186.145 345.526 186.423 343.61C186.439 343.556 186.409 343.535 186.425 343.48C186.416 343.43 186.428 343.35 186.389 343.279ZM185.261 302.354C185.12 302.147 184.983 301.964 184.888 301.722C184.836 301.576 184.742 301.489 184.628 301.432C184.795 301.35 184.949 301.193 185.013 300.974C185.439 299.161 187.029 297.761 188.967 298.009C190.721 298.238 191.557 300.005 191.304 301.631C190.839 304.669 187.318 304.706 185.607 302.837C185.701 302.638 185.601 302.371 185.311 302.345C185.311 302.345 185.286 302.35 185.261 302.354ZM257.129 315.746C246.86 312.874 237.275 304.567 229.521 297.356C224.781 286.857 213.339 278.754 199.851 275.865C200.062 275.594 200.099 275.224 199.773 274.998C198.677 274.236 197.511 273.668 196.559 272.699C195.695 271.791 195.107 270.679 194.689 269.51C196.326 267.506 197.644 265.17 198.529 262.445C198.849 261.481 199.063 260.509 199.207 259.576C220.286 277.428 239.888 296.012 258.708 316.162C258.295 316.028 257.756 315.918 257.129 315.746ZM188.953 274.687C190.826 273.418 192.512 271.975 193.982 270.337C194.569 272.305 195.786 274.315 197.512 275.404C194.707 274.949 191.858 274.684 188.953 274.687ZM250.5 293.431C253.398 298.301 256.063 303.316 258.485 308.427C260.59 312.921 263.503 316.285 260.662 316.355C243.382 294.529 222.822 274.51 200.409 258.038C200.108 257.807 199.773 257.816 199.505 257.916C199.87 253.16 198.316 248.696 194.901 244.852C194.897 244.827 194.872 244.832 194.867 244.807C219.615 245.258 239.01 274.09 250.5 293.431ZM135.517 227.456C142.63 218.688 155.387 209.425 165.546 217.603C170.795 221.843 170.467 227.811 174.794 232.838C177.089 235.51 180.109 237.3 182.933 239.306C186.296 241.708 190.176 243.525 192.728 246.902C199.99 256.429 194.972 266.609 187.034 272.959C175.968 281.815 160.305 281.545 149.208 290.951C149.162 290.985 149.146 291.04 149.125 291.069C148.202 288.099 146.72 285.334 144.789 282.959C149.133 279.276 153.231 275.378 157.963 272.118C163.822 268.059 170.067 264.708 176.626 261.949C176.652 261.944 176.668 261.89 176.693 261.885C177.821 262.823 179.466 263.175 180.915 262.863C183.736 262.252 184.793 259.186 183.575 256.735C182.313 254.189 179.142 252.997 176.777 254.847C174.84 256.335 174.208 259.17 175.463 261.251C164.112 265.778 151.888 272.38 143.589 281.62C140.573 278.404 136.669 276.022 132.18 275.144C131.586 275.017 130.977 274.945 130.397 274.894C133.588 265.95 137.246 257.726 142.524 249.858C142.673 249.961 142.8 250.093 142.948 250.196C143.151 250.315 143.357 250.304 143.528 250.247C143.567 250.318 143.61 250.414 143.72 250.446C146.861 251.903 150.764 250.243 152 247.015C153.183 243.926 151.262 240.746 148.356 239.584C145.559 238.454 142.399 239.488 141.057 242.269C139.883 244.683 140.271 247.852 142.278 249.643C136.72 257.25 132.032 265.66 129.354 274.719C129.358 274.744 129.358 274.744 129.363 274.769C124.927 274.478 121.004 275.597 117.576 277.742C118.902 259.855 124.075 241.588 135.517 227.456ZM176.901 259.437C176.793 259.12 176.585 258.976 176.345 258.941C176.776 256.428 180.047 254.57 181.751 257.555C183.853 261.169 178.015 262.892 176.901 259.437ZM143.364 248.178C143.323 248.237 143.281 248.296 143.24 248.356C140.653 245.218 142.799 239.546 147.455 241.353C149.378 242.096 150.901 244.077 150.269 246.186C149.507 248.733 146.536 250.096 144.108 249.288C144.053 249.272 144.033 249.302 143.982 249.311C143.96 249.185 143.937 249.06 143.814 248.952C143.662 248.824 143.534 248.692 143.406 248.559C143.448 248.5 143.484 248.415 143.551 248.352C143.629 248.208 143.472 248.055 143.364 248.178ZM115.417 283.624C115.431 283.699 115.423 283.804 115.412 283.884C115.473 285.091 117.209 284.935 117.257 283.76C117.283 283.185 117.31 282.61 117.336 282.035C117.565 281.864 117.76 281.648 118.018 281.498C133.789 270.242 149.463 288.184 146.875 304.094C145.11 315.063 137.081 322.777 137.691 333.681C137.374 333.79 137.147 334.116 137.39 334.461C137.532 334.669 137.677 334.902 137.823 335.135C137.892 335.667 137.962 336.198 138.057 336.725C138.156 337.278 138.745 337.379 139.184 337.223C141.095 340.352 142.747 343.631 143.87 347.136C144.638 349.537 145.351 353.789 145.206 358.039C144.729 358.125 144.29 358.567 144.478 359.181C144.648 359.694 144.818 360.208 145.013 360.717C144.544 364.456 143.269 367.898 140.571 369.627C140.415 369.629 140.285 369.626 140.134 369.653C135.603 374.459 128.194 376.101 122.055 372.824C118.066 370.69 115.085 367.235 112.625 363.505C111.278 361.492 110.671 359.269 110.584 357.055C109.345 354.635 108.182 352.2 107.189 349.709C101.249 334.839 99.6949 317.962 104.616 302.617C106.768 295.829 110.09 288.624 115.417 283.624ZM26.5782 191.804C27.4467 191.441 33.7775 197.948 34.4863 198.572C54.8479 216.475 71.7776 236.498 81.4362 262.104C81.4794 262.2 81.5637 262.236 81.6275 262.303C80.4928 276.63 78.5933 290.888 76.0386 305.108C75.6882 288.145 69.5761 272.605 62.0594 257.189C51.238 234.928 39.6674 212.828 26.3656 191.92C26.441 191.906 26.4822 191.847 26.5782 191.804ZM27.1034 215.37C26.4538 209.734 24.9157 202.184 25.7846 196.482C25.9121 195.604 25.6222 194.567 25.5648 193.671C35.9479 210.749 45.1127 228.409 54.1241 246.227C63.8244 265.424 73.8596 284.897 73.7792 306.68C68.851 286.471 56.1164 270.307 40.4761 256.739C40.9632 256.418 41.2363 255.773 40.813 255.149C32.6586 243.112 28.7771 229.738 27.1034 215.37ZM60.7995 325.676C58.2939 325.012 55.711 323.196 53.4991 321.857C39.7629 313.544 29.4959 300.721 21.8388 286.832C14.1773 272.919 8.93167 257.871 2.90204 243.224C1.74609 240.4 -0.0715054 237.357 -0.834433 234.41C-0.997455 233.792 -1.13792 233.299 -1.27839 232.806C18.7156 254.87 37.1814 278.245 53.3716 303.246C56.9578 308.77 62.9002 315.425 64.7881 321.746C66.2386 326.643 67.7526 327.563 60.7995 325.676ZM70.8472 329.339C49.4135 294.498 26.5902 261.307 -0.840313 230.913C-0.680538 230.936 -0.541394 230.989 -0.356476 231.007C5.23842 231.687 13.3019 239.464 18.1102 242.694C44.9334 260.758 67.065 283.604 73.9914 315.946C73.0497 320.521 72.0325 325.109 70.9606 329.681C70.9129 329.56 70.9155 329.43 70.8472 329.339ZM102.664 299.262C100.35 305.871 99.1039 312.652 98.8477 318.01C98.5915 323.369 99.2315 331.262 100.981 339.552C82.7913 343.701 62.3963 352.03 47.2491 364.159C64.9351 341.908 85.2697 321.694 102.664 299.262ZM88.8883 390.627C89.5333 392.195 82.2887 401.246 81.5098 402.396C70.3438 419.071 57.0174 433.827 42.2575 447.389C42.2117 447.423 42.1956 447.478 42.1544 447.537C28.0711 448.409 14.5189 451.803 3.10511 458.726C28.6177 432.684 57.0095 409.675 87.17 389.147C87.9618 389.368 88.5636 389.83 88.8883 390.627ZM4.46843 381.72C3.67462 399.822 -3.23404 416.949 -5.85824 434.68C-6.04642 433.055 -6.22366 431.636 -6.24236 430.81C-6.58479 421.542 -6.6965 412.259 -6.62339 402.994C-6.44943 383.319 -5.20471 363.684 -3.14498 344.111C-0.0720019 356.594 5.06972 368.032 4.46843 381.72ZM-5.54557 344.464C-9.14073 379.889 -9.81344 415.41 -7.42198 450.951C-7.56885 451.288 -7.73636 451.655 -7.88324 451.993C-24.8456 416.919 -21.1378 379.09 -5.54557 344.464ZM55.6491 398.206C62.6271 395.034 69.9486 392.475 77.4144 390.719C79.7538 390.169 83.3005 388.832 85.8827 388.912C51.8057 409.729 21.6176 435.445 -5.31798 464.826C-6.97886 466.265 -8.57145 467.795 -10.0912 469.442C2.15282 438.268 24.6238 412.332 55.6491 398.206ZM65.1616 450.427C69.3688 450.889 98.6603 456.562 100.803 459.391C62.6196 458.943 25.3961 466.435 -11.7894 474.282C7.20125 453.662 38.0239 447.502 65.1616 450.427ZM6.80371 472.237C37.3235 465.691 68.0341 460.639 99.317 461.083C94.7105 463.595 81.8554 467.693 79.7023 468.702C73.4258 471.592 67.1971 474.603 60.7615 477.184C45.3216 483.354 29.2888 486.079 12.7308 483.715C8.97595 483.172 -11.0367 477.749 -10.6676 477.061C-8.91141 473.843 3.53016 472.929 6.80371 472.237Z" fill="#FAF2EE"/>
            <path d="M180.747 231.612C191.965 218.401 202.289 203.252 209.745 187.581C209.802 187.467 209.784 187.366 209.771 187.291C210.053 186.696 210.34 186.126 210.622 185.531C210.651 185.552 210.685 185.598 210.74 185.614C234.135 191.673 266.026 189.001 275.727 162.586C276.961 159.203 277.649 155.529 277.708 151.812C296.323 146.861 312.595 135.359 322.51 118.65C325.675 113.313 329.243 106.323 326.06 100.157C324.667 97.453 322.72 97.155 320.797 95.1162C315.808 89.8706 313.291 86.2542 311.925 79.3729C311.557 77.4695 311.353 75.6142 310.759 73.7514C305.892 58.066 287.587 59.6963 275.525 65.751C268.909 69.0647 263.237 73.5825 258.236 78.8089C264.422 60.9819 265.883 34.7523 250.549 22.1656C244.251 16.9996 236.406 15.6362 228.894 18.7223C222.084 21.5268 218.403 25.5831 210.618 25.997C202.658 26.4426 195.841 23.7282 188.033 23.2912C169.196 22.2443 158.914 39.5113 161.451 56.8075C161.703 58.4985 162.056 60.1715 162.433 61.84C154.063 57.4093 138.777 52.0184 130.898 59.9907C127.056 63.8687 127.504 69.8265 127.2 74.779C126.561 85.0787 124.443 90.6163 118.589 98.7431C116.406 101.752 114.076 103.363 112.691 107.059C102.037 135.536 155.512 151.507 173.991 154.458C174.34 154.525 174.624 154.37 174.798 154.183C179.856 168.331 195.425 179.917 209.183 184.598C207.634 187.234 206.089 189.896 204.713 192.631C204.577 192.889 204.593 193.119 204.633 193.345C196.247 205.711 187.897 217.992 179.07 230.074C178.215 231.238 179.783 232.744 180.747 231.612ZM165.879 40.3072C172.764 24.3501 186.066 26.0548 200.137 28.5801C204.453 29.3595 208.892 30.2464 213.277 29.5361C222.451 28.0434 229.613 18.8263 239.486 20.2142C265.234 23.7771 260.394 63.3903 255.682 81.6262C246.843 91.7663 240.244 104.121 234.407 115.951C233.911 116.947 235.394 117.691 235.923 116.741C244.342 101.519 252.472 85.4164 266.386 74.3643C273.152 69.0021 282.32 63.7267 291.23 63.6548C304.802 63.5486 307.268 72.7979 309.735 83.4982C312.775 96.6613 327.411 105.797 317.647 120.457C308.048 134.88 293.942 144.723 277.654 150.215C277.494 144.128 275.631 138.087 271.677 133.407C268.257 129.383 264.158 127.502 259.766 127.021C268.97 121.662 277.802 114.659 284.248 106.218C286.711 108.523 289.784 109.888 293.061 107.77C296.155 105.789 297.052 101.689 294.761 98.7576C292.735 96.1414 288.819 95.1346 286.058 97.2374C284.37 98.5255 283.304 100.816 283.461 102.991C282.787 103.138 282.262 104.113 282.884 104.831C283.02 105.013 283.203 105.162 283.335 105.32C275.105 113.796 266.681 121.192 256.197 126.937C253.651 127.058 251.047 127.577 248.488 128.348C248.654 126.53 247.624 124.694 245.952 123.621C243.198 121.861 240.09 123.041 237.443 124.476C237.445 124.346 237.443 124.191 237.446 124.061C245.155 118.607 252.006 111.985 257.378 104.204C258.737 105.126 260.643 105.484 262.104 105.247C264.882 104.826 267.009 102.37 266.364 99.5061C265.76 96.8676 262.962 94.5716 260.198 95.0682C257.308 95.5874 256.181 98.4074 255.887 101.103C255.738 101.285 255.669 101.479 255.685 101.71C255.707 101.835 255.755 101.956 255.803 102.077C255.783 102.547 255.785 102.988 255.807 103.398C255.819 103.759 256.091 103.969 256.394 104.07C250.598 110.787 244.335 116.784 237.236 122.025C236.813 120.391 235.866 118.876 234.774 118.14C232.624 116.712 230.015 117.206 228.183 118.702C229.138 108.423 231.233 98.4325 234.043 88.5203C234.524 88.7448 235.051 88.9352 235.631 88.9865C235.951 89.0327 236.243 88.9283 236.422 88.7667C238.498 88.627 240.564 87.4263 241.628 85.5507C243.443 82.3738 241.636 78.8112 238.365 77.6368C235.232 76.5152 231.441 77.7924 230.611 81.2586C230.045 83.5892 230.97 86.1439 232.748 87.6645C232.778 87.6851 232.762 87.7399 232.791 87.7604C232.85 87.8016 232.88 87.8222 232.935 87.8383C233.088 87.9663 233.265 88.0899 233.443 88.2134C229.782 97.8639 227.582 107.848 226.417 118.112C225.835 115.159 222.401 112.795 219.401 112.842C218.805 112.845 218.257 112.97 217.738 113.115C213.396 95.4437 212.17 78.6634 213.994 60.6614C214.119 60.6389 214.229 60.671 214.35 60.6233C215.145 60.4287 215.003 59.4953 214.47 59.1246C216.833 58.8554 219.023 57.0367 219.761 54.6494C220.927 50.8895 218.011 47.6556 214.359 47.2493C210.702 46.818 206.991 49.1174 206.779 52.9909C206.58 56.4995 209.634 60.7968 213.377 60.6945C210.386 78.2584 211.306 96.5188 216.25 113.641C216.255 113.666 216.284 113.687 216.289 113.712C212.958 115.529 211.128 119.926 211.292 123.577C211.311 124.118 212.092 124.133 212.212 123.645C213.077 120.379 214.513 116.39 218.13 115.299C221.4 114.297 224.828 117.206 224.106 120.549C223.863 121.655 225.41 122.18 225.96 121.2C226.215 120.74 226.364 120.273 226.459 119.789C226.566 119.951 226.723 120.104 226.892 120.178C226.39 120.994 226.071 121.958 226.046 122.973C226.042 123.674 227.083 123.694 227.255 123.067C227.926 120.303 231.68 118.099 234.059 120.367C234.875 121.154 235.313 122.293 235.31 123.434C235.315 123.459 235.294 123.488 235.303 123.539C234.983 123.777 234.688 124.012 234.343 124.255C233.673 124.713 234.015 125.61 234.618 125.787C234.528 126.01 234.443 126.259 234.383 126.503C234.231 127.1 234.89 127.733 235.495 127.495C236.313 127.141 236.806 126.56 237.15 125.876C238.853 125.104 240.72 124.379 242.571 124.435C244.969 124.497 247.51 126.658 246.47 129.099C245.325 129.512 244.164 129.98 243.058 130.464C231.929 135.366 223.438 140.364 210.852 136.432C204.093 134.329 198.844 129.364 191.612 128.383C191.587 128.387 191.558 128.367 191.507 128.376C191.242 127.335 190.82 126.141 190.848 124.995C191.239 124.718 191.441 124.111 191.171 123.616C191.191 123.586 191.208 123.531 191.228 123.502C192.001 122.171 193.686 122.024 194.993 122.514C197.574 123.45 198.225 126.21 199.698 128.2C200.044 128.682 200.994 128.485 200.873 127.807C200.816 127.351 200.71 126.903 200.579 126.461C200.473 123.707 200.321 116.944 204.296 117.267C207.98 117.563 208.482 121.801 209.465 124.527C209.817 125.474 211.329 125.229 211.245 124.181C210.934 120.143 208.505 114.852 203.679 115.278C201.713 115.45 200.594 116.584 199.967 118.148C199.962 118.123 199.958 118.098 199.928 118.077C187.541 103.847 175.34 87.7687 167.965 70.2533C163.838 60.7065 161.644 50.0866 165.879 40.3072ZM285.793 104.852C285.736 104.681 285.734 104.526 285.702 104.35C285.764 104.261 285.826 104.172 285.888 104.083C286.135 103.728 285.878 103.308 285.538 103.291C285.466 101.879 285.839 100.49 286.971 99.4316C288.802 97.7811 291.554 98.375 292.984 100.269C294.486 102.279 293.725 104.826 291.642 106.082C289.397 107.444 287.44 106.37 285.793 104.852ZM257.729 101.394C258.034 99.6293 258.586 97.7938 260.28 97.2563C261.948 96.7234 263.814 98.3057 264.224 99.8648C264.708 101.695 263.18 103.006 261.47 103.158C259.709 103.319 258.759 102.505 257.729 101.394ZM236.25 87.0872C236.19 87.046 236.136 87.03 236.051 86.9933C233.851 86.5852 232.379 84.3101 232.733 82.0954C233.108 79.8512 235.402 79.0502 237.408 79.6746C239.523 80.3312 240.893 82.4693 239.735 84.5432C238.988 85.8696 237.673 86.7797 236.25 87.0872ZM211.557 57.7821C210.063 56.8324 208.98 55.4204 209.021 53.3398C209.05 50.6134 211.642 49.1628 214.11 49.471C216.493 49.7425 218.432 51.7266 217.632 54.2027C216.848 56.6242 214.206 58.5241 211.657 57.764C211.632 57.7686 211.582 57.7776 211.557 57.7821ZM120.216 100.29C125.738 92.4828 128.182 90.2037 129.392 79.9052C129.783 76.5955 129.112 69.5376 130.211 66.8521C135.799 53.2014 153.367 59.4521 162.16 63.781C162.442 63.9116 162.698 63.8916 162.915 63.8007C168.568 84.5799 185.029 104.013 198.494 119.475C198.783 119.786 199.102 119.832 199.39 119.703C199.15 120.964 199.108 122.319 199.188 123.627C197.827 121.539 195.704 119.976 193.117 120.156C191.196 120.294 190.117 121.214 189.591 122.474C182.765 117.973 177.277 112.118 173.034 105.105C175.025 103.193 175.407 100.118 174.083 97.6611C172.446 94.6121 168.648 93.9729 165.812 95.804C163.098 97.5875 162.04 101.224 164.054 103.92C165.728 106.159 168.984 107.103 171.412 105.604C171.615 105.723 171.859 105.783 172.085 105.742C175.993 113.489 181.898 119.788 189.201 124.488C189.191 125.734 189.48 127.055 189.998 128.206C186.163 127.936 182.524 128.616 179.629 130.406C168.14 121.897 157.219 112.793 146.515 103.314C146.611 103.271 146.728 103.198 146.815 103.104C149.069 100.782 148.329 96.6648 146.092 94.6049C143.578 92.3094 139.839 93.0072 137.776 95.5289C135.796 97.932 135.806 101.454 138.274 103.499C140.408 105.266 143.561 105.348 145.693 103.643C155.621 113.858 166.448 123.16 177.8 131.771C176.036 133.358 174.661 135.523 173.945 138.321C172.65 143.244 172.921 148.068 174.292 152.668C153.307 148.042 97.7275 132.19 120.216 100.29ZM167.105 97.8005C171.298 95.1552 174.306 101.067 171.055 103.906C170.856 104.097 170.767 104.321 170.752 104.531C166.896 105.301 162.891 100.475 167.105 97.8005ZM144.303 102.26C144.396 102.347 144.494 102.459 144.588 102.546C141.212 104.111 136.53 100.573 139.389 97.0012C140.704 95.3656 143.118 94.8022 144.679 96.4136C146.205 97.9794 146.098 100.123 145.041 101.894C145.021 101.924 145.03 101.974 145.009 102.004C144.916 101.917 144.827 101.855 144.733 101.768C144.423 101.487 144.014 101.949 144.303 102.26ZM190.781 171.681C187.29 168.421 184.189 164.443 181.828 160.254C178.514 154.371 172.733 139.808 180.592 133.887C181.386 134.263 182.251 133.589 182.279 132.884C184.403 131.855 187.179 131.278 190.873 131.34C198.996 131.513 206.013 138.805 213.744 140.836C219.025 142.22 223.864 141.869 229.065 140.209C236.251 137.907 242.493 132.95 249.79 131.12C270.619 125.927 279.365 148.767 271.374 164.923C261.365 185.147 237.416 187.844 217.214 185.409C217.238 184.965 217.031 184.535 216.467 184.429C206.623 182.622 198.132 178.524 190.781 171.681Z" fill="#FAF2EE"/>
        </g>
        <mask id="mask5_827_59" style="mask-type:luminance" maskUnits="userSpaceOnUse" x="187" y="476" width="39" height="59">
            <path d="M225.4 476H187V534.09H225.4V476Z" fill="white"/>
        </mask>
        <g mask="url(#mask5_827_59)">
            <path d="M211.24 477.78C209.77 474.44 204.29 476.3 203.46 479.2C203.16 480.25 203.69 481.14 204.49 481.74C205.11 482.21 205.95 482.35 206.71 482.34C207.66 482.33 208.45 482.02 209.29 481.63C210.7 480.99 211.94 479.38 211.24 477.78Z" fill="#501782"/>
            <path d="M214.48 492.5C213.81 491.63 212.49 491.04 211.39 491.45C210.81 491.66 210.24 491.82 209.8 492.3C209.64 492.48 209.51 492.67 209.38 492.87C208.8 493.4 208.6 494.26 208.7 495.01C208.81 495.85 209.25 496.42 209.93 496.9C210.55 497.33 211.23 497.41 211.95 497.51C213.04 497.65 214.02 496.81 214.58 496C214.63 495.93 214.67 495.86 214.71 495.78C215.25 494.68 215.24 493.48 214.48 492.5Z" fill="#501782"/>
            <path d="M199.759 493.35C199.559 492.32 198.519 491.78 197.579 491.69C196.759 491.62 196.089 491.83 195.359 492.19C195.309 492.22 195.279 492.23 195.249 492.25C195.209 492.26 195.179 492.26 195.109 492.28C194.859 492.34 194.599 492.39 194.349 492.46C192.369 492.99 190.379 495.15 191.629 497.27C192.939 499.5 195.809 499.26 197.609 497.86C199.109 496.69 200.139 495.35 199.759 493.35Z" fill="#501782"/>
            <path d="M193.609 512.151C193.459 511.231 192.329 510.761 191.519 510.961C191.499 510.961 191.499 510.961 191.489 510.971C191.409 510.971 191.329 510.971 191.249 510.971C191.279 510.971 190.019 511.191 189.969 511.211C189.519 511.271 189.109 511.361 188.699 511.571C188.279 511.791 187.989 512.121 187.679 512.461C186.889 513.321 186.669 514.941 187.679 515.761C188.389 516.341 189.029 516.761 190.019 516.771C191.039 516.781 191.819 516.291 192.549 515.651C193.629 514.711 193.839 513.501 193.609 512.151Z" fill="#501782"/>
            <path d="M209.68 509.501C209.44 509.391 209.21 509.281 208.97 509.181C208.15 508.811 207.4 508.621 206.49 508.861C206.22 508.931 205.96 509.041 205.69 509.131C204.6 509.511 203.61 510.291 203.34 511.481C203.14 512.361 203.21 513.281 203.68 514.071C204.11 514.801 204.88 515.391 205.69 515.621C206.95 515.971 208 515.531 208.97 514.751C209.64 514.211 210.29 513.641 210.45 512.731C210.51 512.411 210.54 512.071 210.58 511.751C210.7 510.941 210.54 509.901 209.68 509.501Z" fill="#501782"/>
            <path d="M224.17 501.82C223.09 500.99 221.67 501.15 220.44 501.43C220.08 501.51 219.71 501.58 219.36 501.69C218.49 501.99 217.89 502.5 217.32 503.19C216.5 504.18 216.15 505.34 216.68 506.58C217.2 507.8 218.25 508.35 219.52 508.49C220.26 508.57 220.94 508.57 221.65 508.27C222.14 508.06 222.57 507.81 223.02 507.54C224.07 506.9 225.17 506.01 225.35 504.7C225.53 503.43 225.18 502.6 224.17 501.82Z" fill="#501782"/>
            <path d="M223.369 520.57C223.199 520 222.979 519.67 222.609 519.23C222.269 518.81 221.639 518.54 221.029 518.48C220.799 518.42 220.569 518.37 220.289 518.39C220.199 518.39 220.119 518.41 220.039 518.42C219.389 518.37 218.679 518.54 218.159 518.84C217.499 519.22 216.879 519.98 216.709 520.73C216.529 521.54 216.569 522.45 217.029 523.17C217.489 523.88 218.109 524.35 218.919 524.62C219.569 524.84 220.299 524.79 220.949 524.65C221.149 524.61 221.309 524.53 221.509 524.44C221.899 524.31 222.239 524.09 222.529 523.79C222.689 523.58 222.859 523.36 223.019 523.15C223.179 522.91 223.279 522.63 223.359 522.35C223.509 521.81 223.529 521.11 223.369 520.57Z" fill="#501782"/>
            <path d="M208.809 529.04C208.199 527.93 206.799 527.9 205.949 528.62C205.939 528.62 205.919 528.62 205.909 528.62C205.199 528.72 204.719 529.071 204.179 529.511C204.359 529.371 204.539 529.231 204.719 529.091C204.629 529.151 204.549 529.201 204.459 529.251C203.549 529.721 203.099 530.861 203.229 531.831C203.289 532.301 203.449 532.68 203.739 533.05C204.049 533.45 204.559 533.9 205.079 533.98C205.979 534.12 206.829 534.201 207.669 533.711C208.379 533.291 208.849 532.541 209.089 531.771C209.359 530.861 209.259 529.88 208.809 529.04Z" fill="#501782"/>
        </g>
    </g>
    <defs>
        <clipPath id="clip0_827_59">
            <rect width="386" height="803" fill="white"/>
        </clipPath>
    </defs>
</svg>
