<svg width="387" height="803" viewBox="0 0 387 803" fill="none" xmlns="http://www.w3.org/2000/svg">
    <g clip-path="url(#clip0_827_111)">
        <mask id="mask0_827_111" style="mask-type:luminance" maskUnits="userSpaceOnUse" x="307" y="100" width="83" height="100">
            <path d="M307.795 199.471H389.385V100.131H307.795V199.471Z" fill="white"/>
        </mask>
        <g mask="url(#mask0_827_111)">
            <path d="M362.854 178.521C365.314 183.841 371.024 183.451 374.214 179.051C374.844 178.181 375.534 177.191 376.224 176.131C381.724 172.321 384.804 162.891 384.034 157.061C383.684 154.451 381.344 151.441 378.244 152.651C372.904 154.741 368.454 158.121 365.444 163.071C362.864 167.281 360.644 173.741 362.854 178.521Z" fill="#EF3467"/>
            <path d="M336.034 199.321C339.694 200.201 343.124 197.101 345.374 194.191C347.554 192.501 349.003 189.661 348.983 187.001C349.453 184.861 349.283 182.721 347.613 181.291C347.043 180.801 346.303 180.421 345.543 180.421C344.053 179.371 342.213 178.881 340.243 179.311C333.533 180.801 326.603 197.051 336.034 199.321Z" fill="#EF3467"/>
            <path d="M339.914 159.07C340.894 161.39 344.184 161.72 346.114 160.7C348.214 159.59 350.324 157.91 352.044 155.88C353.044 155.15 353.914 154.22 354.584 153.15C356.634 149.84 357.544 145.57 356.424 141.8C355.264 137.91 351.084 136.45 347.594 138.21C339.954 142.06 336.654 151.33 339.914 159.07Z" fill="#EF3467"/>
            <path d="M372.153 125.201C375.793 129.121 381.013 127.201 384.023 123.601C386.313 120.851 387.943 117.491 388.513 113.981C390.773 109.401 388.433 103.091 383.833 101.001C381.893 100.121 379.353 99.6007 377.453 101.001C373.553 103.861 370.503 107.921 369.593 112.781C368.833 116.811 369.223 122.041 372.153 125.201Z" fill="#EF3467"/>
            <path d="M338.413 123.31C341.893 127.94 347.413 125.36 350.133 121.52C352.383 118.35 354.923 113.33 354.423 109.32C354.423 109.3 354.413 109.28 354.413 109.26C354.413 109.18 354.413 109.11 354.403 109.03C353.913 103.6 349.103 101.02 344.213 103.18C340.873 104.66 338.643 108.86 337.843 112.25C337.013 115.78 336.073 120.19 338.413 123.31Z" fill="#EF3467"/>
            <path d="M307.834 168.201C308.234 172.351 311.235 176.381 315.675 176.581C319.475 176.751 323.205 173.591 323.045 169.661C323.035 169.411 322.995 169.161 322.935 168.911C323.975 165.151 323.405 160.921 321.315 157.671C319.205 154.371 313.545 153.671 311.605 157.671C309.915 161.151 307.444 164.061 307.834 168.201Z" fill="#EF3467"/>
            <path d="M319.373 140.301C321.193 138.241 323.083 135.391 323.473 132.491C323.773 132.121 324.083 131.741 324.393 131.321C326.143 129.011 324.833 125.051 322.413 123.771C319.843 122.411 316.333 123.041 314.863 125.751C313.813 127.321 313.163 129.451 312.583 131.271C311.983 133.141 311.713 135.111 311.553 137.061C311.243 140.961 316.823 143.181 319.373 140.301Z" fill="#EF3467"/>
        </g>
        <mask id="mask1_827_111" style="mask-type:luminance" maskUnits="userSpaceOnUse" x="261" y="737" width="55" height="66">
            <path d="M261.385 802.471H315.385V737.471H261.385V802.471Z" fill="white"/>
        </mask>
        <g mask="url(#mask1_827_111)">
            <path d="M297.827 788.763C299.455 792.244 303.234 791.989 305.345 789.11C305.762 788.541 306.219 787.893 306.676 787.199C310.316 784.706 312.354 778.536 311.845 774.722C311.613 773.014 310.064 771.044 308.013 771.836C304.478 773.204 301.533 775.415 299.541 778.654C297.833 781.409 296.364 785.636 297.827 788.763Z" fill="#501782"/>
            <path d="M280.076 802.372C282.498 802.948 284.768 800.92 286.258 799.015C287.7 797.91 288.66 796.051 288.647 794.311C288.958 792.911 288.845 791.51 287.74 790.575C287.363 790.254 286.873 790.006 286.37 790.006C285.384 789.318 284.166 788.998 282.862 789.279C278.421 790.254 273.835 800.887 280.076 802.372Z" fill="#501782"/>
            <path d="M282.645 776.037C283.294 777.555 285.471 777.771 286.748 777.103C288.138 776.377 289.535 775.278 290.673 773.949C291.335 773.472 291.911 772.863 292.354 772.163C293.711 769.997 294.313 767.203 293.572 764.737C292.804 762.191 290.038 761.236 287.728 762.388C282.671 764.907 280.487 770.972 282.645 776.037Z" fill="#501782"/>
            <path d="M303.982 753.875C306.391 756.44 309.846 755.184 311.838 752.828C313.354 751.029 314.432 748.83 314.81 746.533C316.305 743.537 314.757 739.408 311.712 738.04C310.428 737.465 308.747 737.124 307.49 738.04C304.908 739.912 302.89 742.568 302.288 745.748C301.785 748.385 302.043 751.807 303.982 753.875Z" fill="#501782"/>
            <path d="M281.652 752.638C283.955 755.668 287.609 753.98 289.409 751.467C290.898 749.393 292.579 746.108 292.248 743.484C292.248 743.471 292.242 743.458 292.242 743.445C292.242 743.393 292.242 743.347 292.235 743.295C291.911 739.742 288.727 738.054 285.491 739.467C283.28 740.435 281.804 743.183 281.275 745.402C280.726 747.711 280.103 750.597 281.652 752.638Z" fill="#501782"/>
            <path d="M261.412 782.011C261.677 784.726 263.662 787.363 266.601 787.494C269.116 787.605 271.585 785.537 271.479 782.966C271.472 782.802 271.446 782.639 271.406 782.475C272.094 780.015 271.717 777.247 270.334 775.121C268.937 772.961 265.191 772.503 263.907 775.121C262.789 777.398 261.154 779.302 261.412 782.011Z" fill="#501782"/>
            <path d="M269.049 763.755C270.253 762.407 271.504 760.542 271.762 758.645C271.961 758.403 272.166 758.154 272.371 757.879C273.529 756.368 272.662 753.777 271.061 752.939C269.36 752.049 267.037 752.462 266.064 754.235C265.369 755.262 264.939 756.656 264.555 757.847C264.158 759.07 263.979 760.359 263.873 761.635C263.668 764.187 267.361 765.64 269.049 763.755Z" fill="#501782"/>
        </g>
        <mask id="mask2_827_111" style="mask-type:luminance" maskUnits="userSpaceOnUse" x="199" y="202" width="197" height="207">
            <path d="M202.172 202.115L199.84 406.102L392.827 408.308L395.16 204.322L202.172 202.115Z" fill="white"/>
        </mask>
        <g mask="url(#mask2_827_111)">
            <path d="M394.261 204.342C390.386 205.243 386.735 206.828 383.039 208.32C379.265 209.842 375.52 211.457 371.821 213.166C364.393 216.599 357.204 220.608 350.214 224.852C349.638 225.201 349.078 225.567 348.502 225.917C348.331 225.961 348.161 225.975 347.975 226.035C346.563 226.437 345.137 226.808 343.711 227.133C341.2 227.724 338.643 228.206 336.088 228.595C333.084 229.057 330.081 229.394 327.048 229.623C327.05 229.437 327.006 229.251 326.884 229.079C325.56 227.282 323.655 226.222 321.687 225.238C319.443 224.112 317.135 223.11 314.78 222.23C310.316 220.583 305.707 219.368 301 218.679C296.2 217.989 291.302 217.762 286.46 217.986C282.207 218.185 277.795 218.677 273.984 220.726C267.918 223.988 264.163 233.259 270.568 238.229C273.664 240.635 277.817 241.086 281.586 241.423C286.25 241.833 290.949 241.902 295.636 241.646C301.05 241.336 306.454 240.561 311.74 239.35C314.189 238.79 316.624 238.136 319.044 237.388C320.285 237 321.527 236.58 322.753 236.145C324.15 235.649 325.148 234.87 326.364 234.016C326.738 233.757 326.79 233.277 326.624 232.904C330.027 232.757 333.416 232.454 336.792 231.935C337.876 231.777 338.945 231.572 340.014 231.383C329.747 238.286 319.982 245.891 310.767 254.154C309.174 255.577 307.611 257.031 306.064 258.501C305.864 258.422 305.648 258.388 305.431 258.432C303.352 259.013 301.481 260.417 299.447 261.184C297.056 262.102 294.619 262.927 292.183 263.736C288.862 264.829 285.511 265.829 282.146 266.751C280.935 265.838 279.375 265.743 277.816 265.539C275.269 265.216 272.706 264.923 270.142 264.708C265.4 264.313 260.594 264.149 255.858 264.653C248.011 265.462 240.098 267.928 233.827 272.847C230.941 275.107 228.065 277.926 229.008 281.919C229.908 285.711 233.31 288.353 236.725 289.833C244.278 293.096 252.893 291.382 259.879 287.541C264.063 285.249 267.793 282.254 271.369 279.103C273.227 277.45 275.056 275.751 276.975 274.177C278.676 272.771 280.328 271.643 281.753 270.032C285.956 268.902 290.143 267.695 294.271 266.316C296.242 265.657 298.213 264.982 300.154 264.245C288.473 275.92 277.861 288.63 268.492 302.222C266.634 302.495 264.91 303.173 263.046 303.895C260.391 304.919 257.766 306.02 255.186 307.199C252.451 308.454 249.777 309.787 247.132 311.214C245.205 310.742 243.361 311.108 241.316 311.503C238.713 312.001 236.14 312.591 233.597 313.306C229.161 314.572 224.904 316.383 220.965 318.802C213.524 323.335 206.582 330.074 202.689 337.964C200.98 341.447 199.866 345.603 200.997 349.428C201.533 351.216 202.611 352.948 204.128 354.066C206.198 355.577 208.445 355.154 210.74 354.498C219.644 351.888 226.608 345.862 232.041 338.517C235.024 334.506 237.608 330.212 240.377 326.06C241.761 323.983 243.191 321.923 244.713 319.957C246.282 317.945 248.389 316.171 249.467 313.844C249.483 313.828 249.483 313.797 249.484 313.782C251.754 312.584 254.071 311.448 256.402 310.374C258.795 309.27 261.234 308.244 263.688 307.296C264.293 307.055 264.914 306.845 265.504 306.62C260.313 314.479 255.52 322.591 251.173 330.956C249.434 334.299 247.757 337.689 246.141 341.142C242.917 343.212 240.115 346.264 237.67 349.119C234.74 352.541 232.209 356.278 230.015 360.204C225.296 368.627 221.134 378.373 221.115 388.167C221.105 393.126 222.519 397.915 224.042 402.597C224.579 404.261 225.302 405.974 227.199 406.399C229.065 406.807 230.809 405.634 232 404.299C233.472 402.658 234.285 400.436 235.189 398.463C236.236 396.135 237.222 393.775 238.099 391.398C239.933 386.476 241.444 381.41 242.601 376.279C243.871 370.621 244.57 364.911 245.162 359.153C245.474 356.197 245.801 353.225 246.391 350.303C246.604 349.267 246.848 348.247 247.091 347.227C248.472 344.082 249.915 340.952 251.434 337.855C258.541 323.416 266.969 309.643 276.578 296.751C276.641 296.674 276.703 296.597 276.766 296.505C276.3 298.08 275.88 299.672 275.445 301.217C273.977 306.562 272.663 311.955 271.735 317.415C271.569 318.42 271.402 319.425 271.267 320.431C271.034 320.568 270.892 320.814 270.904 321.14C270.901 321.403 270.929 321.636 270.973 321.869C269.079 322.514 268.3 324.38 267.4 326.09C266.293 328.216 265.34 330.421 264.557 332.674C263.071 336.919 262.077 341.355 261.747 345.845C261.122 354.609 262.551 363.412 268.94 369.854C271.63 372.566 275.829 375.76 279.869 375.326C283.692 374.92 286.573 371.745 288.31 368.542C292.432 360.918 290.701 351.43 287.821 343.71C286.126 339.166 283.934 334.802 281.338 330.697C279.971 328.527 278.48 326.449 276.88 324.447C276.133 323.524 275.372 322.415 274.454 321.568C275.185 315.811 276.332 310.106 277.742 304.482C278.876 299.892 280.46 295.23 281.364 290.53C293.004 275.786 306.16 262.253 320.582 250.222C319.935 251.377 319.334 252.563 318.733 253.749C317.246 256.708 315.974 259.792 314.779 262.894C312.421 269.019 310.54 275.335 309.152 281.766C309.087 282.091 309.021 282.431 308.956 282.756C308.878 282.786 308.8 282.816 308.722 282.877C302.59 287.843 299.035 295.923 297.787 303.61C296.522 311.468 297.509 319.801 301.061 326.955C304.445 333.781 311.77 340.792 319.664 335.97C327.588 331.117 327.038 321.053 324.809 313.248C323.307 308.009 321.465 302.827 319.498 297.753C318.476 295.138 317.424 292.553 316.231 290.014C315.1 287.583 313.747 285.522 312.195 283.397C312.276 283.026 312.327 282.655 312.409 282.284C313.764 275.93 315.629 269.691 317.971 263.627C319.166 260.526 320.545 257.505 321.925 254.483C323.177 251.755 324.552 249.151 325.435 246.279C332.206 240.886 339.236 235.822 346.51 231.116C347.553 230.446 348.612 229.808 349.655 229.153C350.726 228.747 351.583 228.168 352.642 227.529C352.844 227.408 352.939 227.254 353.018 227.084C355.462 225.609 357.936 224.196 360.426 222.814C358.939 224.393 357.513 226.02 356.18 227.74C352.602 232.348 349.469 237.302 346.828 242.495C346.72 242.478 346.596 242.476 346.488 242.522C342.733 243.703 339.734 247.76 337.396 250.77C334.886 253.981 332.773 257.536 331.092 261.252C327.572 269.006 325.751 278.144 328.966 286.316C331.235 292.076 338.63 301.009 345.649 296.905C348.482 295.249 349.849 291.994 350.703 288.967C351.927 284.642 352.581 280.14 352.834 275.664C353.108 270.615 352.841 265.545 351.986 260.576C351.551 258.061 350.883 255.62 350.293 253.149C349.718 250.725 349.592 248.198 349.543 245.702C349.531 245.423 349.409 245.236 349.241 245.11C349.383 244.833 349.51 244.54 349.653 244.247C352.2 239.162 355.223 234.331 358.691 229.814C360.433 227.556 362.283 225.346 364.162 223.213C365.368 221.848 367.163 220.396 368.094 218.687C368.732 218.353 369.37 218.004 370.008 217.671C373.958 215.624 377.938 213.624 381.979 211.748C386.191 209.797 390.599 208.252 394.69 206.098C395.437 205.595 395.3 204.106 394.261 204.342Z" fill="#B88FD3"/>
        </g>
        <mask id="mask3_827_111" style="mask-type:luminance" maskUnits="userSpaceOnUse" x="40" y="0" width="360" height="234">
            <path d="M40.8386 196.754L378.895 233.061L399.931 37.187L61.8752 0.88016L40.8386 196.754Z" fill="white"/>
        </mask>
        <g mask="url(#mask3_827_111)">
            <path d="M45.8786 162.354C59.9143 168.35 75.0608 170.43 90.2472 169.772C105.944 169.096 121.361 165.609 136.572 161.846C142.247 160.438 147.905 159.011 153.555 157.492C159.962 157.035 166.331 156.102 172.676 155.039C177.226 154.292 181.751 153.433 186.268 152.483C187.281 152.519 188.297 152.537 189.312 152.555C169.817 162.545 150.424 173.109 133.944 187.675C128.804 192.229 124.004 197.165 119.671 202.496C118.793 203.564 119.53 205.497 121.06 205.298C147.118 202.027 168.915 185.325 186.458 166.785C191.97 160.963 197.476 155.031 202.37 148.707C218.689 144.608 234.783 139.559 250.535 133.637C248.977 134.778 247.437 135.921 245.899 137.046C240.154 141.317 234.585 145.806 229.174 150.513C218.251 160.024 208.073 170.379 198.778 181.482C193.463 187.834 188.45 194.419 183.741 201.218C182.903 202.418 183.562 204.069 185.128 204.038C201.077 203.716 215.749 193.807 227.807 184.218C240.917 173.797 252.315 161.211 261.316 147.096C263.853 143.099 266.186 138.97 268.311 134.747C269.992 131.438 271.638 128.126 272.726 124.591C290.422 116.806 307.625 107.861 324.179 97.846C321.729 100.363 319.327 102.939 316.962 105.502C311.697 111.223 306.649 117.114 301.818 123.191C292.217 135.279 283.485 148.078 275.695 161.397C271.289 168.936 267.207 176.657 263.418 184.536C262.903 185.607 263.751 187.188 265.065 186.966C280.306 184.441 292.804 174.809 302.701 163.352C314.155 150.082 323.457 134.346 330.344 118.259C332.403 113.465 334.185 108.551 335.701 103.571C337.213 98.6279 338.579 93.6869 338.897 88.5243C343.023 85.8056 347.082 83.0254 351.113 80.1694C358.509 74.9128 365.73 69.4195 372.791 63.7272C370.749 67.1784 368.757 70.6712 366.853 74.1917C362.798 81.6606 359.122 89.3335 355.689 97.1053C348.87 112.563 343.211 128.545 338.77 144.858C336.248 154.126 334.027 163.482 332.25 172.921C332.048 173.954 333.186 175.202 334.261 174.664C341.836 170.953 347.414 164.683 352.331 157.979C357.804 150.499 362.686 142.593 366.899 134.323C371.225 125.848 374.827 117.004 377.69 107.935C380.22 99.9397 382.323 91.698 383.168 83.3212C383.983 75.0503 383.482 66.6925 380.37 58.9628C380.525 58.7068 380.663 58.431 380.8 58.1731C381.893 58.1451 382.36 57.0141 382.085 56.0216C383.944 54.4405 385.787 52.8396 387.615 51.2188C391.59 47.7027 395.67 44.216 399.235 40.2924C400.697 38.6869 398.435 35.9 396.663 37.3451C390.427 42.4537 384.611 48.0616 378.538 53.3512C375.191 51.7016 371.467 50.6838 367.876 49.7713C363.154 48.5737 358.332 47.8014 353.497 47.3184C343.948 46.402 334.314 46.6211 324.767 47.3765C306.553 48.8184 288.139 51.4561 270.761 57.2941C261.13 60.5299 251.894 64.9892 243.442 70.6048C241.878 71.6361 242.505 73.9202 244.204 74.3389C279.298 83.1956 316.915 81.5844 351.072 69.5534C355.754 67.912 360.368 66.0635 364.908 64.0436C365.424 63.8082 365.94 63.5729 366.456 63.3376C362.364 66.5868 358.209 69.7565 354.007 72.8485C346.986 77.9999 339.824 82.9364 332.521 87.6759C295.769 87.999 259.036 90.3412 222.547 94.8172C217.759 95.4115 212.931 95.8742 208.183 96.7815C203.843 97.6056 199.577 98.9282 196.177 101.833C195.137 102.721 194.743 104.859 196.407 105.438C229.924 117.305 266.925 117.536 300.674 106.442C285.929 114.325 270.73 121.36 255.186 127.541C254.383 127.073 253.55 126.711 252.487 126.451C250.702 125.987 248.913 125.559 247.106 125.128C243.509 124.288 239.905 123.501 236.292 122.804C229.157 121.402 221.992 120.287 214.781 119.422C200.306 117.686 185.697 117.025 171.115 117.476C162.821 117.73 154.541 118.367 146.299 119.317C145.342 119.433 144.282 120.336 144.494 121.413C145.246 125.237 148.582 126.649 152.047 127.548C156.094 128.601 160.151 129.563 164.232 130.474C172.517 132.327 180.888 133.898 189.326 135.004C203.464 136.831 217.841 137.449 232.039 136.012C223.087 139.011 214.057 141.73 204.931 144.148C200.686 145.273 196.397 146.302 192.13 147.298C185.415 144.687 178.381 142.859 171.503 140.758C163.764 138.382 156.008 136.005 148.269 133.629C135.869 129.826 122.682 126.411 109.894 130.453C108.334 130.939 108.195 133.25 109.666 133.935C129.365 143.192 150.572 149.231 172.217 151.537C169.228 152.125 166.246 152.658 163.262 153.21C163.142 153.143 162.982 153.107 162.817 153.126C161.453 153.307 160.101 153.543 158.752 153.762C158.734 153.76 158.716 153.758 158.7 153.738C158.262 153.582 157.879 153.595 157.424 153.601C156.786 153.623 156.182 153.667 155.54 153.725C154.347 153.834 153.142 153.886 151.953 153.795C150.726 153.717 149.54 153.426 148.319 153.295C147.313 153.187 146.355 152.975 145.414 153.274C138.844 152.369 132.131 152.447 125.523 151.901C118.247 151.301 110.995 150.486 103.737 149.888C90.9327 148.84 78.0251 148.581 65.3836 151.257C58.4489 152.729 51.7769 155.138 45.714 158.811C44.3584 159.592 44.472 161.749 45.8786 162.354ZM368.742 79.2644C370.947 75.1403 373.205 71.0399 375.548 66.9851C376.551 65.2576 377.624 63.5558 378.661 61.8501C382.647 75.4882 379.805 90.1012 375.897 103.491C370.833 120.863 362.927 137.476 352.61 152.34C348.008 158.987 342.883 165.941 335.913 170.28C342.304 138.514 353.448 107.821 368.742 79.2644ZM365.397 60.8435C361.302 62.6024 357.153 64.1919 352.945 65.6479C344.569 68.5279 335.984 70.8221 327.268 72.4663C309.8 75.7689 292.012 76.9657 274.27 75.3692C266.064 74.6333 257.923 73.3047 249.889 71.4788C263.677 63.3656 279.305 58.5934 294.954 55.6586C303.668 54.0324 312.491 52.9085 321.319 52.0759C330.716 51.1953 340.215 50.7073 349.629 51.3549C354.841 51.7148 360.016 52.4159 365.107 53.5623C368.46 54.3221 371.665 55.4295 374.893 56.503C374.873 56.519 374.853 56.5351 374.813 56.5671C371.669 57.9374 368.578 59.4771 365.397 60.8435ZM335.456 91.807C335.641 91.6088 335.754 91.4029 335.813 91.1912C336.022 90.941 336.162 90.6472 336.215 90.3258C336.332 90.2476 336.45 90.1693 336.585 90.093C335.55 93.4706 334.709 96.9054 333.708 100.305C332.37 104.813 330.784 109.258 328.991 113.608C325.493 122.154 321.302 130.389 316.565 138.294C308.71 151.387 299.491 164.479 287.127 173.708C281.38 177.997 274.954 181.323 267.999 182.992C281.092 156.652 297.747 132.166 317.477 110.354C323.252 103.942 329.502 98.0179 335.456 91.807ZM280.356 108.185C262.835 111.3 244.739 111.646 227.149 108.975C218.64 107.68 210.223 105.704 202.046 103.009C207.958 100.064 215.456 99.943 221.753 99.1656C230.755 98.061 239.781 97.086 248.828 96.2406C267.017 94.5235 285.263 93.285 303.529 92.5393C310.975 92.2305 318.407 92.0475 325.851 91.9202C323.845 93.1766 321.823 94.4131 319.785 95.6297C315.316 97.6573 310.8 99.6072 306.133 101.286C297.741 104.31 289.118 106.618 280.356 108.185ZM265.449 127.734C266.703 127.215 267.94 126.694 269.197 126.156C268.294 127.967 267.443 129.802 266.522 131.611C264.68 135.229 262.7 138.778 260.566 142.237C256.273 149.226 251.454 155.868 246.098 162.088C235.594 174.297 223.052 185.016 209.057 193.016C202.669 196.673 195.782 199.567 188.46 200.416C204.445 178.111 223.734 158.196 245.609 141.612C252.058 136.708 258.893 132.445 265.449 127.734ZM219.424 133.367C203.584 133.519 187.785 131.422 172.279 128.285C167.959 127.404 163.665 126.452 159.398 125.412C157.274 124.893 155.149 124.374 153.029 123.819C152.268 123.629 151.062 123.354 150.059 122.883C177.518 120.108 205.346 121.17 232.486 126.102C236.46 126.82 240.407 127.625 244.344 128.52C245.993 128.897 247.667 129.386 249.328 129.819C248.627 130.089 247.908 130.357 247.206 130.627C245.534 130.974 243.865 131.285 242.167 131.539C234.622 132.6 227.062 133.297 219.424 133.367ZM193.711 154.227C191.341 156.844 188.988 159.462 186.552 162.017C181.781 167.028 176.893 171.936 171.695 176.52C162.423 184.701 152.06 191.874 140.595 196.62C135.614 198.684 130.469 200.239 125.184 201.234C140.134 184.342 159.547 172.236 179.321 161.676C184.082 159.135 188.886 156.689 193.711 154.227ZM116.338 132.871C127.075 131.353 138.172 134.598 148.401 137.641C155.866 139.86 163.327 142.115 170.772 144.35C175.629 145.816 180.47 147.427 185.375 148.789C185.189 148.824 185.002 148.876 184.816 148.911C161.234 147.905 137.888 142.49 116.338 132.871ZM123.948 156.075C131.511 156.705 139.479 157.615 146.922 155.816C147.061 155.868 147.199 155.937 147.339 155.988C137.14 158.255 127.032 161.021 116.794 162.974C101.954 165.814 86.6697 167.389 71.5976 165.461C64.734 164.579 58.0035 162.966 51.6126 160.39C74.2035 149.824 99.8388 154.049 123.948 156.075Z" fill="#FFB3DE"/>
        </g>
        <mask id="mask4_827_111" style="mask-type:luminance" maskUnits="userSpaceOnUse" x="0" y="299" width="489" height="504">
            <path d="M0.617113 373.747L77.6699 802.59L488.767 728.726L411.714 299.883L0.617113 373.747Z" fill="white"/>
        </mask>
        <g mask="url(#mask4_827_111)">
            <path d="M409.5 300.981C406.78 309.374 403.912 317.664 400.87 325.855C383.411 317.175 363.889 314.048 344.602 317.721C321.828 322.046 302.166 335.608 280.212 342.481C279.179 342.796 278.936 344.473 280.029 344.924C297.396 351.937 319.593 356.812 340.914 356.09C321.814 373.361 306.003 393.487 293.148 415.778C292.713 416.53 293.393 417.574 294.257 417.471C294.663 417.423 295.04 417.356 295.447 417.309C295.545 417.421 295.713 417.494 295.88 417.412C295.997 417.339 296.088 417.271 296.209 417.223C334.379 412.542 370.158 389.217 388.753 355.71C377.841 380.295 364.931 403.865 349.101 426.198C347.942 427.831 346.719 429.399 345.551 430.982C345.138 430.849 344.656 430.91 344.288 431.313C328.701 447.201 305.808 455.486 285.219 462.736C281.383 445.284 272.721 426.523 257.625 425.944C256.634 425.915 255.636 425.991 254.656 426.167C250.623 411.809 235.396 380.906 215.862 393.305C211.744 395.937 208.938 399.085 204.103 400.472C203.413 400.673 195.937 400.643 193.737 401.531C190.809 402.705 189.836 403.061 188.24 406.017C183.927 413.919 187.16 424.404 191.715 431.567C188.312 430.961 184.958 430.915 181.648 431.691C159.17 436.948 175.698 461.086 164.29 473.528C154.991 483.699 152.974 493.987 155.692 502.906C145.995 493.686 135.07 487.019 122.283 482.397C121.393 482.065 120.117 482.76 120.551 483.875C128.215 502.712 138.549 520.239 151.829 535.683C162.157 547.692 175.2 561.961 192.495 559.475C192.618 559.583 192.716 559.694 192.839 559.802C172.643 562.601 152.903 560.861 133.359 555.303C133.332 555.152 133.28 555.006 133.207 554.889C133.173 554.844 133.139 554.798 133.13 554.748C134.259 554.104 133.626 552.171 132.349 552.711C132.202 552.763 132.056 552.816 131.939 552.888C122.781 538.44 110.213 526.523 95.2412 518.121C76.5208 507.62 53.9337 506.78 36.1023 494.876C35.188 494.263 33.9227 495.449 34.3041 496.417C41.5522 514.525 50.0908 533.464 66.8598 544.653C68.4512 545.714 70.0999 546.662 71.7648 547.555C58.7678 548.698 46.8102 552.739 35.513 559.589C34.8133 560.025 34.9229 561.068 35.6116 561.437C67.6662 578.302 104.003 584.782 131.96 556.902C132.414 556.975 132.84 556.744 133.112 556.384C147.192 561.266 161.565 563.452 176.131 563.245C162.496 563.725 148.654 564.787 135.961 570.073C122.959 575.519 112.633 585.175 102.392 594.583C101.612 595.293 102.383 596.554 103.305 596.492C132.83 594.945 166.868 589.788 184.825 563.419C184.965 563.186 184.874 562.969 184.696 562.846C188.127 562.592 191.589 562.229 195.049 561.711C195.074 561.707 195.12 561.673 195.145 561.668C197.454 563.404 199.958 564.924 202.274 566.555C210.256 572.144 210.588 576.879 214.813 584.801C221.848 597.972 238.959 591.865 247.923 584.009C264.438 569.535 271.273 545.502 271.193 523.98C275.253 520.737 278.515 516.082 281.036 510.913C291.247 498.453 301.985 486.468 312.659 474.417C306.465 498.699 302.871 523.446 301.662 548.334C301.646 548.389 301.596 548.398 301.61 548.473C301.619 548.524 301.603 548.578 301.612 548.629C301.367 548.569 301.077 548.543 300.819 548.693C265.908 567.898 252.895 605.766 248.339 643.203C248.327 643.283 248.316 643.363 248.304 643.443C248.267 643.812 248.204 644.186 248.167 644.556C248.064 645.429 248.937 646.102 249.733 645.622C276.908 628.688 295.835 600.927 301.277 569.862C301.398 585.26 302.455 600.671 304.409 616.024C304.368 616.084 304.327 616.143 304.286 616.202C303.931 616.395 303.709 616.746 303.651 617.145C278.587 654.924 304.399 698.826 329.47 729.229C329.518 729.35 329.566 729.471 329.613 729.592C329.752 729.93 330.023 730.141 330.297 730.221C330.463 730.424 330.634 730.653 330.825 730.852C331.486 731.64 333.068 731.641 333.233 730.393C336.332 708.378 338.142 685.248 336.263 662.806C348.678 675.606 364.939 681.366 381.737 686.796C382.782 687.127 383.374 685.802 382.948 685.023C366.702 655.522 347.249 610.919 306.079 615.932C305.999 615.635 305.799 615.386 305.5 615.31C303.19 591.624 302.97 568.028 304.671 544.58C314.03 574.438 337.834 596.776 361.421 616.173C362.303 616.895 363.618 616.27 363.595 615.134C362.991 592.282 361.702 569.086 349.263 549.37C362.669 560.464 377.891 569.831 392.029 578.357C392.875 578.878 394.193 577.838 393.736 576.884C375.485 539.113 364.349 483.634 316.576 472.832C316.117 472.733 315.761 473.057 315.648 473.44C315.706 472.755 315.285 472.287 314.717 472.156C329.049 455.923 343.119 439.531 355.402 421.567C368.917 401.801 381.027 380.707 391.137 358.728C388.739 379.166 381.234 398.603 379.64 419.181C378.239 437.082 386.038 450.167 388.349 467.219C388.547 468.609 390.434 469.151 391.152 467.804C410.494 430.949 417.011 386.526 395.359 349.314C402.047 333.703 407.681 317.712 412.045 301.431C412.269 299.939 409.964 299.524 409.5 300.981ZM48.523 504.384C60.2812 508.905 72.8627 510.791 84.4759 515.805C95.9751 520.762 106.543 528.038 115.442 536.857C116.424 537.846 129.371 551.873 128.679 552.645C128.551 552.797 116.765 545.378 115.459 544.602C103.802 537.471 92.3791 529.909 80.5003 523.128C68.3046 516.171 51.9939 512.442 42.5446 501.571C45.0696 502.775 47.9367 504.152 48.523 504.384ZM40.1878 559.189C41.049 552.867 68.6955 549.817 75.115 549.311C89.109 555.738 105.104 556.985 120.587 556.976C94.4825 564.568 67.4602 561.131 40.2755 559.821C40.2349 559.595 40.1692 559.374 40.1878 559.189ZM68.3071 572.485C64.2108 571.485 44.5627 566.359 40.8457 561.118C69.98 564.617 100.356 567.66 128.115 556.867C128.556 556.865 128.992 556.839 129.408 556.842C112.331 571.08 90.4137 577.868 68.3071 572.485ZM126.05 555.191C95.8957 554.389 67.1312 550.927 49.4913 522.765C46.1421 517.406 40.7976 509.892 39.889 503.68C39.7517 502.772 37.8555 500.158 38.5462 499.671C38.5462 499.671 38.829 499.802 39.2555 500.011C39.2369 500.195 39.2729 500.396 39.414 500.604C49.0071 513.574 66.2088 517.066 79.7066 524.774C96.0664 534.118 111.485 545.005 127.709 554.607C127.12 554.791 126.585 554.991 126.05 555.191ZM116.664 584.658C125.073 577.757 134.146 572.24 144.735 569.248C145.672 568.976 176.751 565.828 177.049 565.179C176.62 566.111 167.621 569.438 167.358 569.563C161.978 571.955 156.575 574.222 151.017 576.205C136.025 581.543 119.991 583.542 107.44 593.805C106.777 591.851 117.84 583.695 116.664 584.658ZM183.943 562.981C168.236 580.368 148.587 588.952 125.586 592.307C123.186 592.661 113.753 594.874 109.438 594.535C119.784 586.43 132.078 584.118 144.441 580.315C157.323 576.368 169.504 570.681 181.675 564.943C182.585 564.521 182.438 563.122 181.326 563.14C182.202 563.112 183.07 563.034 183.943 562.981ZM324.418 718.864C320.757 714.079 317.208 709.197 313.933 704.11C297.534 678.524 289.838 647.668 304.134 619.832C313.981 653.126 314.884 688.468 326.278 721.277C325.74 720.596 325.13 719.798 324.418 718.864ZM333.648 668.173C334.472 684.456 334.023 700.863 332.189 717.079C331.586 722.526 331.133 724.914 329.875 724.699C320.785 700.521 317.901 674.942 313.349 649.611C312.415 644.414 311.431 639.227 310.276 634.096C308.813 627.543 303.498 617.017 315.491 620.823C332.431 626.176 332.953 653.915 333.648 668.173ZM368.683 664.237C371.246 668.83 374.322 673.538 376.36 678.381C377.584 681.296 377.652 682.684 376.977 683.116C361.962 669.85 347.779 656.02 335.098 640.443C334.33 639.492 332.677 640.541 333.474 641.512C345.955 656.84 359.769 671.073 375.404 683.165C373.311 682.634 369.836 680.615 366.412 679.313C354.822 674.865 344.332 669.027 335.856 659.821C335.461 655.745 334.97 651.713 334.298 647.687C332.076 634.455 325.586 621.86 313.42 617.671C339.513 620.265 356.372 642.062 368.683 664.237ZM253.974 619.566C256.077 610.481 258.978 601.511 262.906 593.057C268.048 581.974 275.015 571.522 283.993 563.171C285.391 561.857 297.506 551.621 298.213 553.101C299.372 555.51 291.642 567.343 290.365 569.905C278.388 593.903 264.949 617.128 250.456 639.687C248.855 636.839 253.315 622.536 253.974 619.566ZM275.57 619.651C272.197 623.834 257.899 640.397 252.197 640.566C270.734 612.227 287.158 582.661 301.312 551.87C299.661 576.605 291.263 600.168 275.57 619.651ZM193.45 431.981C186.603 420.15 186.052 408.276 200.671 403.602C205.086 402.187 208.17 401.451 212.241 399.424C221.188 394.94 229.577 392.836 238.023 400.001C245.858 406.652 249.742 417.15 252.748 426.665C247.075 428.436 242.289 433.416 240.19 438.769C240.137 438.908 240.11 439.043 240.057 439.182C237.421 432.451 233.823 425.997 229.367 420.396C231.568 419.508 232.55 416.17 232.176 414.087C231.572 410.723 228.226 408.991 225.024 410.085C221.722 411.196 219.602 414.843 221.129 418.145C222.388 420.821 225.706 422.687 228.629 421.773C232.82 428.354 236.353 435.027 239.143 442.326C238.218 446.847 238.806 451.276 240.265 455.497C238.418 455.181 236.437 455.848 235.333 457.498C235.272 457.301 235.14 457.144 234.962 457.02C223.87 449.71 208.507 435.521 193.45 431.981ZM223.34 418.033C221.922 415.773 223.081 413.129 225.508 412.201C227.643 411.377 229.851 412.405 230.069 414.776C230.277 416.942 229.089 417.984 227.495 419.074C226.871 419.497 227.128 420.203 227.668 420.468C225.958 420.335 224.325 419.618 223.34 418.033ZM156.846 498.5C155.656 488.555 159.546 482.492 166.124 475.505C168.845 472.606 171.365 471.039 172.486 467.028C173.455 463.614 172.671 459.971 172.162 456.564C170.483 444.763 174.715 432.807 189.163 434.254C204.671 435.822 221.135 450.512 234.043 458.688C234.28 458.853 234.515 458.863 234.711 458.802C234.359 460.161 234.68 461.658 235.463 462.839C232.258 462.326 228.845 463.976 227.676 467.141C227.554 467.473 227.483 467.797 227.416 468.146C219.489 463.584 211.099 460.919 202.067 459.873C202.324 456.976 200.335 454.275 197.484 453.569C194.419 452.824 191.702 455.023 191.088 457.958C190.474 460.893 192.075 464.026 195.195 464.502C197.706 464.906 200.718 463.484 201.514 460.983C201.681 460.901 201.818 460.799 201.916 460.625C210.976 462.107 219.46 465.3 227.384 469.992C227.599 472.052 228.777 473.992 230.517 475.156C227.523 475.383 224.762 477.771 224.376 480.821C223.927 484.53 226.913 487.725 230.484 487.964C231.064 488.016 231.082 487.105 230.543 486.995C227.777 486.326 225.411 483.693 225.965 480.717C226.504 477.795 229.231 476.372 231.989 476.421C232.405 476.424 232.568 476.032 232.48 475.685C232.72 475.434 232.778 475.035 232.351 474.827C229.687 473.569 227.895 470.522 228.979 467.606C230.063 464.69 233.308 463.407 236.19 464.289C236.628 464.418 236.88 464.087 236.892 463.722C237.041 463.54 237.097 463.271 236.876 463.052C233.909 460.112 237.078 455.37 240.812 456.954C242.286 460.68 244.378 464.243 246.615 467.599C248.114 481.428 236.255 491.644 236.079 505.1C236.003 505.113 235.898 505.106 235.832 505.17C233.963 506.75 230.852 507.05 229.094 505.059C227.076 502.778 228.515 499.669 230.564 498.083C230.747 497.946 230.786 497.732 230.78 497.552C231.062 497.242 230.908 496.674 230.382 496.638C229.647 496.589 228.901 496.334 228.279 495.902C228.282 495.487 228.004 495.096 227.511 495.237C226.932 494.615 226.532 493.832 226.534 492.976C226.495 490.884 228.375 489.509 230.287 489.321C230.999 489.245 231.153 488.077 230.388 488.008C227.628 487.804 225.02 490.035 224.959 492.87C224.947 493.961 225.304 494.933 225.918 495.756C218.224 498.408 210.474 499.879 202.337 500.356C201.617 498.516 199.73 497.248 197.682 497.253C195.033 497.237 193.096 499.451 193.065 502.022C193.021 504.518 194.747 506.903 197.347 507.083C200.002 507.28 202.68 505.296 202.819 502.602C202.835 502.262 202.623 502.093 202.375 502.008C202.512 501.905 202.64 501.753 202.625 501.522C202.602 501.397 202.579 501.271 202.557 501.146C210.916 501.328 219.262 499.854 227.048 496.849C227.582 497.219 228.152 497.506 228.775 497.653C226.202 499.359 225.677 503.652 227.507 506.044C229.538 508.685 233.794 508.983 236.162 506.718C236.266 508.306 236.475 509.901 236.937 511.606C236.993 511.777 237.045 511.923 237.098 512.069C237.038 512.028 236.958 512.017 236.867 512.085C227.063 518.874 210.827 520.755 199.423 527.443C181.42 526.712 159.327 519.383 156.846 498.5ZM199.997 460.193C200.006 460.243 200.02 460.318 200.029 460.368C199.185 461.738 197.82 462.657 196.09 462.553C193.994 462.438 192.859 460.594 193.178 458.619C193.479 456.829 194.941 455.296 196.856 455.704C198.712 456.07 200.242 457.946 199.964 459.862C199.948 459.917 199.977 459.937 199.961 459.992C199.97 460.042 199.958 460.122 199.997 460.193ZM201.125 501.118C201.266 501.326 201.403 501.508 201.498 501.75C201.551 501.897 201.644 501.983 201.758 502.041C201.591 502.122 201.438 502.28 201.373 502.498C200.947 504.311 199.357 505.712 197.419 505.464C195.666 505.234 194.83 503.467 195.082 501.841C195.548 498.803 199.069 498.766 200.779 500.636C200.685 500.834 200.785 501.101 201.075 501.127C201.075 501.127 201.1 501.122 201.125 501.118ZM129.258 487.727C139.526 490.598 149.112 498.905 156.866 506.116C161.605 516.615 173.047 524.718 186.535 527.607C186.325 527.878 186.287 528.248 186.613 528.474C187.71 529.236 188.875 529.804 189.828 530.773C190.691 531.681 191.28 532.793 191.697 533.962C190.06 535.967 188.742 538.303 187.857 541.027C187.538 541.992 187.323 542.963 187.179 543.896C166.101 526.044 146.499 507.46 127.679 487.311C128.092 487.444 128.63 487.554 129.258 487.727ZM197.433 528.785C195.56 530.054 193.874 531.498 192.405 533.135C191.818 531.167 190.601 529.157 188.875 528.068C191.68 528.523 194.529 528.789 197.433 528.785ZM135.887 510.041C132.989 505.171 130.324 500.156 127.901 495.045C125.797 490.551 122.884 487.187 125.725 487.117C143.004 508.943 163.564 528.962 185.977 545.434C186.278 545.665 186.614 545.656 186.881 545.556C186.517 550.313 188.071 554.776 191.485 558.62C191.49 558.645 191.515 558.64 191.519 558.666C166.771 558.214 147.377 529.382 135.887 510.041ZM250.87 576.016C243.756 584.784 230.999 594.047 220.84 585.869C215.591 581.629 215.92 575.661 211.593 570.634C209.297 567.962 206.278 566.173 203.453 564.166C200.091 561.764 196.211 559.948 193.659 556.571C186.396 547.043 191.415 536.864 199.352 530.513C210.418 521.657 226.081 521.927 237.179 512.521C237.225 512.487 237.241 512.433 237.261 512.403C238.184 515.373 239.667 518.139 241.598 520.513C237.253 524.196 233.155 528.094 228.424 531.354C222.565 535.413 216.319 538.764 209.76 541.523C209.735 541.528 209.719 541.583 209.694 541.587C208.566 540.65 206.92 540.297 205.472 540.609C202.65 541.22 201.593 544.286 202.812 546.737C204.073 549.283 207.244 550.476 209.609 548.625C211.547 547.137 212.179 544.302 210.923 542.221C222.274 537.694 234.498 531.092 242.798 521.852C245.814 525.068 249.718 527.45 254.207 528.328C254.8 528.455 255.41 528.527 255.99 528.578C252.798 537.522 249.14 545.747 243.862 553.614C243.714 553.512 243.586 553.379 243.438 553.276C243.235 553.157 243.03 553.168 242.858 553.225C242.82 553.154 242.776 553.058 242.667 553.026C239.526 551.569 235.622 553.229 234.387 556.457C233.204 559.546 235.124 562.726 238.03 563.888C240.827 565.018 243.987 563.984 245.329 561.203C246.504 558.789 246.116 555.62 244.108 553.829C249.667 546.222 254.355 537.813 257.033 528.753C257.028 528.728 257.028 528.728 257.024 528.703C261.46 528.995 265.383 527.875 268.81 525.73C267.485 543.617 262.311 561.884 250.87 576.016ZM209.485 544.035C209.594 544.352 209.801 544.496 210.041 544.531C209.611 547.044 206.339 548.902 204.636 545.917C202.534 542.303 208.372 540.581 209.485 544.035ZM243.023 555.294C243.064 555.235 243.105 555.176 243.146 555.117C245.733 558.254 243.588 563.926 238.932 562.119C237.008 561.377 235.485 559.396 236.118 557.286C236.879 554.74 239.851 553.376 242.278 554.184C242.333 554.2 242.354 554.171 242.404 554.162C242.427 554.287 242.449 554.413 242.572 554.52C242.725 554.648 242.852 554.781 242.98 554.913C242.939 554.972 242.902 555.057 242.836 555.121C242.758 555.264 242.915 555.417 243.023 555.294ZM270.969 519.848C270.956 519.773 270.963 519.668 270.975 519.588C270.913 518.381 269.178 518.538 269.129 519.712C269.103 520.287 269.077 520.862 269.05 521.437C268.822 521.608 268.627 521.824 268.369 521.974C252.598 533.23 236.924 515.288 239.512 499.378C241.276 488.409 249.306 480.695 248.695 469.791C249.013 469.682 249.24 469.356 248.996 469.011C248.855 468.803 248.709 468.57 248.564 468.337C248.494 467.806 248.424 467.274 248.33 466.747C248.23 466.194 247.642 466.093 247.203 466.249C245.292 463.12 243.639 459.841 242.517 456.337C241.748 453.935 241.036 449.683 241.18 445.433C241.658 445.347 242.097 444.906 241.909 444.291C241.739 443.778 241.569 443.264 241.373 442.755C241.843 439.017 243.118 435.574 245.816 433.845C245.971 433.843 246.101 433.846 246.252 433.819C250.784 429.014 258.192 427.371 264.332 430.648C268.32 432.782 271.302 436.237 273.762 439.968C275.109 441.98 275.716 444.204 275.802 446.417C277.041 448.838 278.205 451.272 279.197 453.763C285.137 468.633 286.691 485.51 281.771 500.855C279.618 507.643 276.296 514.848 270.969 519.848ZM359.808 611.668C358.94 612.032 352.609 605.524 351.9 604.9C331.538 586.997 314.609 566.974 304.95 541.369C304.907 541.273 304.822 541.236 304.759 541.17C305.893 526.842 307.793 512.584 310.348 498.364C310.698 515.327 316.81 530.867 324.327 546.284C335.148 568.544 346.719 590.644 360.021 611.552C359.945 611.566 359.904 611.625 359.808 611.668ZM359.283 588.102C359.932 593.738 361.471 601.288 360.602 606.99C360.474 607.868 360.764 608.905 360.821 609.802C350.438 592.723 341.274 575.063 332.262 557.245C322.562 538.049 312.527 518.575 312.607 496.792C317.535 517.001 330.27 533.165 345.91 546.733C345.423 547.054 345.15 547.699 345.573 548.323C353.728 560.36 357.609 573.734 359.283 588.102ZM325.587 477.796C328.092 478.46 330.675 480.277 332.887 481.616C346.623 489.928 356.89 502.752 364.547 516.64C372.209 530.554 377.454 545.601 383.484 560.248C384.64 563.072 386.458 566.115 387.221 569.062C387.384 569.68 387.524 570.173 387.665 570.666C367.671 548.603 349.205 525.228 333.015 500.226C329.428 494.702 323.486 488.047 321.598 481.726C320.148 476.83 318.634 475.91 325.587 477.796ZM315.539 474.133C336.973 508.974 359.796 542.165 387.226 572.559C387.067 572.536 386.928 572.483 386.743 572.465C381.148 571.786 373.084 564.008 368.276 560.778C341.453 542.714 319.321 519.868 312.395 487.526C313.337 482.951 314.354 478.363 315.426 473.791C315.473 473.912 315.471 474.042 315.539 474.133ZM283.722 504.21C286.036 497.601 287.282 490.82 287.538 485.462C287.795 480.103 287.155 472.21 285.406 463.92C303.595 459.771 323.99 451.442 339.137 439.313C321.451 461.564 301.116 481.778 283.722 504.21ZM297.498 412.845C296.853 411.277 304.097 402.226 304.876 401.076C316.042 384.401 329.369 369.645 344.129 356.083C344.174 356.049 344.191 355.994 344.232 355.935C358.315 355.063 371.867 351.669 383.281 344.746C357.769 370.788 329.377 393.797 299.216 414.325C298.424 414.104 297.823 413.642 297.498 412.845ZM381.918 421.753C382.712 403.651 389.62 386.523 392.244 368.792C392.433 370.417 392.61 371.836 392.628 372.662C392.971 381.93 393.083 391.214 393.01 400.479C392.836 420.154 391.591 439.788 389.531 459.361C386.458 446.878 381.316 435.44 381.918 421.753ZM391.932 459.008C395.527 423.583 396.2 388.062 393.808 352.521C393.955 352.184 394.122 351.817 394.269 351.479C411.232 386.553 407.524 424.382 391.932 459.008ZM330.737 405.266C323.759 408.438 316.438 410.997 308.972 412.753C306.632 413.303 303.086 414.64 300.503 414.56C334.58 393.743 364.769 368.027 391.704 338.646C393.365 337.207 394.958 335.677 396.477 334.03C384.233 365.204 361.762 391.14 330.737 405.266ZM321.225 353.046C317.017 352.584 287.726 346.91 285.584 344.082C323.767 344.529 360.99 337.038 398.176 329.19C379.185 349.81 348.362 355.97 321.225 353.046ZM379.582 331.235C349.063 337.781 318.352 342.833 287.069 342.389C291.676 339.877 304.531 335.779 306.684 334.77C312.96 331.88 319.189 328.869 325.625 326.288C341.065 320.119 357.097 317.393 373.655 319.757C377.41 320.3 397.423 325.723 397.054 326.411C395.298 329.629 382.856 330.543 379.582 331.235Z" fill="#FAF2EE"/>
            <path d="M205.639 571.859C194.421 585.07 184.096 600.22 176.641 615.89C176.583 616.004 176.601 616.105 176.615 616.18C176.333 616.775 176.046 617.345 175.764 617.94C175.734 617.919 175.7 617.874 175.645 617.857C152.25 611.799 120.36 614.471 110.658 640.885C109.425 644.268 108.736 647.943 108.678 651.659C90.0619 656.611 73.7905 668.112 63.8756 684.821C60.7105 690.158 57.1421 697.148 60.325 703.315C61.7186 706.018 63.6657 706.317 65.5883 708.355C70.5771 713.601 73.0944 717.217 74.4605 724.099C74.8284 726.002 75.0321 727.857 75.6262 729.72C80.4935 745.405 98.798 743.775 110.861 737.72C117.476 734.407 123.149 729.889 128.149 724.663C121.963 742.49 120.503 768.719 135.837 781.306C142.134 786.472 149.979 787.835 157.491 784.749C164.302 781.945 167.982 777.888 175.767 777.474C183.728 777.029 190.544 779.743 198.352 780.18C217.19 781.227 227.471 763.96 224.934 746.664C224.682 744.973 224.33 743.3 223.952 741.631C232.322 746.062 247.608 751.453 255.488 743.481C259.33 739.603 258.882 733.645 259.185 728.692C259.825 718.393 261.942 712.855 267.796 704.728C269.979 701.719 272.309 700.108 273.695 696.412C284.348 667.935 230.874 651.964 212.395 649.013C212.045 648.946 211.762 649.101 211.588 649.288C206.53 635.14 190.96 623.554 177.202 618.873C178.752 616.237 180.297 613.575 181.673 610.84C181.808 610.582 181.793 610.352 181.752 610.126C190.139 597.76 198.489 585.479 207.316 573.398C208.17 572.233 206.602 570.727 205.639 571.859ZM220.507 763.164C213.621 779.121 200.32 777.417 186.249 774.891C181.933 774.112 177.494 773.225 173.108 773.935C163.935 775.428 156.772 784.645 146.9 783.257C121.152 779.694 125.992 740.081 130.704 721.845C139.542 711.705 146.141 699.35 151.979 687.52C152.474 686.524 150.992 685.78 150.462 686.73C142.044 701.952 133.914 718.055 120 729.107C113.233 734.469 104.066 739.745 95.1558 739.817C81.5835 739.923 79.1175 730.674 76.6502 719.973C73.6107 706.81 58.9744 697.674 68.7386 683.014C78.3378 668.591 92.4433 658.748 108.731 653.256C108.891 659.343 110.755 665.384 114.708 670.064C118.129 674.088 122.228 675.969 126.62 676.45C117.415 681.81 108.584 688.813 102.137 697.253C99.6739 694.949 96.6013 693.583 93.3246 695.701C90.2308 697.682 89.3335 701.782 91.624 704.714C93.6503 707.33 97.5663 708.337 100.327 706.234C102.015 704.946 103.082 702.655 102.925 700.481C103.598 700.334 104.124 699.358 103.502 698.641C103.365 698.458 103.183 698.309 103.051 698.152C111.28 689.676 119.704 682.279 130.188 676.534C132.734 676.414 135.339 675.894 137.898 675.123C137.731 676.941 138.762 678.777 140.433 679.851C143.187 681.61 146.295 680.43 148.943 678.995C148.94 679.125 148.942 679.281 148.939 679.411C141.23 684.865 134.379 691.486 129.007 699.267C127.649 698.345 125.743 697.987 124.281 698.224C121.504 698.646 119.377 701.101 120.021 703.965C120.625 706.604 123.424 708.9 126.188 708.403C129.077 707.884 130.205 705.064 130.498 702.368C130.647 702.186 130.716 701.992 130.701 701.761C130.678 701.636 130.63 701.515 130.583 701.394C130.602 700.924 130.601 700.484 130.579 700.073C130.566 699.712 130.295 699.502 129.991 699.401C135.788 692.684 142.05 686.687 149.15 681.446C149.573 683.08 150.519 684.595 151.611 685.332C153.761 686.759 156.37 686.265 158.202 684.769C157.248 695.048 155.152 705.039 152.342 714.951C151.861 714.727 151.334 714.536 150.754 714.485C150.435 714.439 150.142 714.543 149.964 714.705C147.888 714.845 145.821 716.045 144.757 717.921C142.942 721.098 144.749 724.66 148.021 725.835C151.153 726.956 154.944 725.679 155.774 722.213C156.341 719.882 155.415 717.328 153.637 715.807C153.608 715.786 153.624 715.732 153.594 715.711C153.535 715.67 153.505 715.649 153.451 715.633C153.298 715.505 153.12 715.382 152.942 715.258C156.603 705.608 158.804 695.624 159.968 685.359C160.551 688.312 163.984 690.676 166.985 690.629C167.581 690.626 168.129 690.501 168.648 690.356C172.99 708.028 174.215 724.808 172.392 742.81C172.266 742.833 172.157 742.8 172.036 742.848C171.241 743.043 171.382 743.976 171.916 744.347C169.552 744.616 167.363 746.435 166.625 748.822C165.459 752.582 168.374 755.816 172.026 756.222C175.683 756.654 179.394 754.354 179.606 750.481C179.806 746.972 176.751 742.675 173.008 742.777C176 725.213 175.079 706.953 170.135 689.83C170.131 689.805 170.101 689.784 170.097 689.759C173.427 687.942 175.257 683.545 175.094 679.894C175.074 679.354 174.294 679.338 174.174 679.826C173.308 683.092 171.872 687.082 168.255 688.172C164.985 689.174 161.558 686.266 162.28 682.922C162.522 681.816 160.975 681.291 160.425 682.271C160.171 682.731 160.021 683.199 159.926 683.682C159.819 683.52 159.662 683.367 159.493 683.293C159.995 682.478 160.315 681.513 160.34 680.498C160.344 679.798 159.303 679.777 159.13 680.404C158.459 683.168 154.705 685.372 152.326 683.104C151.511 682.318 151.073 681.178 151.075 680.038C151.071 680.012 151.091 679.983 151.082 679.933C151.402 679.694 151.698 679.459 152.043 679.216C152.713 678.759 152.37 677.861 151.768 677.684C151.857 677.461 151.942 677.213 152.002 676.968C152.154 676.371 151.496 675.738 150.89 675.976C150.072 676.331 149.58 676.911 149.236 677.595C147.533 678.368 145.666 679.092 143.814 679.036C141.417 678.974 138.876 676.813 139.915 674.372C141.06 673.959 142.221 673.491 143.328 673.007C154.456 668.105 162.947 663.107 175.533 667.039C182.292 669.142 187.542 674.107 194.773 675.089C194.798 675.084 194.828 675.105 194.878 675.096C195.143 676.137 195.565 677.331 195.537 678.476C195.146 678.753 194.944 679.36 195.215 679.855C195.194 679.885 195.178 679.94 195.157 679.969C194.385 681.3 192.699 681.448 191.392 680.957C188.812 680.021 188.16 677.262 186.687 675.272C186.341 674.789 185.391 674.986 185.513 675.664C185.569 676.12 185.675 676.568 185.807 677.011C185.913 679.765 186.064 686.527 182.09 686.205C178.405 685.908 177.903 681.67 176.92 678.944C176.569 677.997 175.056 678.243 175.141 679.29C175.452 683.329 177.881 688.62 182.706 688.193C184.673 688.021 185.792 686.887 186.418 685.323C186.423 685.348 186.428 685.373 186.457 685.394C198.844 699.625 211.045 715.703 218.42 733.218C222.548 742.765 224.741 753.385 220.507 763.164ZM100.593 698.619C100.65 698.79 100.652 698.945 100.683 699.121C100.621 699.21 100.559 699.299 100.498 699.388C100.25 699.743 100.507 700.163 100.847 700.18C100.92 701.592 100.547 702.981 99.4139 704.04C97.5836 705.69 94.8312 705.097 93.4015 703.202C91.899 701.192 92.6604 698.645 94.7433 697.39C96.9886 696.027 98.9453 697.101 100.593 698.619ZM128.656 702.077C128.351 703.842 127.799 705.678 126.106 706.215C124.438 706.748 122.571 705.166 122.161 703.607C121.677 701.776 123.205 700.465 124.916 700.313C126.676 700.152 127.627 700.966 128.656 702.077ZM150.136 716.384C150.195 716.425 150.25 716.442 150.334 716.478C152.534 716.886 154.007 719.161 153.652 721.376C153.278 723.62 150.983 724.421 148.978 723.797C146.862 723.14 145.493 721.002 146.65 718.928C147.398 717.602 148.713 716.692 150.136 716.384ZM174.829 745.689C176.322 746.639 177.406 748.051 177.365 750.132C177.336 752.858 174.743 754.309 172.276 754C169.892 753.729 167.954 751.745 168.754 749.269C169.538 746.847 172.179 744.947 174.728 745.707C174.753 745.703 174.804 745.694 174.829 745.689ZM266.17 703.181C260.647 710.989 258.203 713.268 256.993 723.566C256.602 726.876 257.274 733.934 256.174 736.619C250.586 750.27 233.018 744.019 224.226 739.69C223.943 739.56 223.687 739.58 223.47 739.671C217.817 718.892 201.356 699.458 187.892 683.996C187.603 683.685 187.283 683.639 186.995 683.768C187.235 682.507 187.277 681.152 187.198 679.845C188.559 681.933 190.681 683.495 193.268 683.315C195.189 683.177 196.269 682.258 196.794 680.997C203.621 685.498 209.108 691.353 213.351 698.366C211.36 700.278 210.979 703.353 212.302 705.81C213.94 708.859 217.738 709.499 220.573 707.667C223.287 705.884 224.346 702.247 222.331 699.551C220.658 697.312 217.401 696.368 214.973 697.867C214.77 697.748 214.526 697.688 214.3 697.729C210.392 689.982 204.488 683.683 197.185 678.983C197.194 677.737 196.905 676.416 196.387 675.265C200.222 675.535 203.861 674.855 206.756 673.065C218.245 681.574 229.166 690.678 239.87 700.157C239.774 700.201 239.658 700.273 239.571 700.367C237.316 702.69 238.056 706.807 240.294 708.867C242.807 711.162 246.546 710.464 248.609 707.943C250.59 705.539 250.579 702.017 248.111 699.972C245.978 698.205 242.825 698.123 240.693 699.828C230.765 689.613 219.937 680.311 208.586 671.7C210.35 670.113 211.724 667.948 212.441 665.15C213.735 660.227 213.465 655.403 212.094 650.804C233.079 655.43 288.658 671.281 266.17 703.181ZM219.281 705.671C215.087 708.316 212.079 702.404 215.33 699.565C215.529 699.374 215.619 699.15 215.633 698.94C219.489 698.17 223.495 702.996 219.281 705.671ZM242.083 701.211C241.989 701.124 241.891 701.012 241.798 700.925C245.174 699.36 249.856 702.898 246.996 706.47C245.682 708.106 243.267 708.669 241.707 707.058C240.18 705.492 240.288 703.348 241.344 701.577C241.365 701.547 241.356 701.497 241.376 701.468C241.47 701.554 241.559 701.616 241.652 701.703C241.962 701.984 242.372 701.522 242.083 701.211ZM195.605 631.79C199.096 635.05 202.197 639.028 204.557 643.217C207.871 649.1 213.652 663.663 205.793 669.584C205 669.208 204.135 669.882 204.106 670.587C201.982 671.616 199.207 672.193 195.513 672.131C187.389 671.958 180.373 664.667 172.641 662.635C167.361 661.251 162.521 661.602 157.321 663.262C150.135 665.564 143.892 670.521 136.595 672.351C115.767 677.545 107.02 654.704 115.011 638.548C125.021 618.324 148.969 615.627 169.172 618.062C169.148 618.507 169.355 618.936 169.918 619.042C179.762 620.85 188.254 624.947 195.605 631.79Z" fill="#FAF2EE"/>
        </g>
        <mask id="mask5_827_111" style="mask-type:luminance" maskUnits="userSpaceOnUse" x="160" y="269" width="40" height="59">
            <path d="M160.985 327.471H199.385V269.381H160.985V327.471Z" fill="white"/>
        </mask>
        <g mask="url(#mask5_827_111)">
            <path d="M175.143 325.69C176.613 329.03 182.093 327.17 182.923 324.27C183.223 323.22 182.693 322.33 181.893 321.73C181.273 321.26 180.433 321.12 179.673 321.13C178.723 321.14 177.933 321.45 177.093 321.84C175.683 322.48 174.443 324.09 175.143 325.69Z" fill="#501782"/>
            <path d="M171.904 310.971C172.574 311.841 173.894 312.431 174.994 312.021C175.574 311.811 176.144 311.651 176.584 311.171C176.744 310.991 176.874 310.801 177.004 310.601C177.584 310.071 177.784 309.211 177.684 308.461C177.574 307.621 177.134 307.051 176.454 306.571C175.834 306.141 175.154 306.061 174.434 305.961C173.344 305.821 172.364 306.661 171.804 307.471C171.754 307.541 171.714 307.611 171.674 307.691C171.134 308.791 171.144 309.991 171.904 310.971Z" fill="#501782"/>
            <path d="M186.624 310.12C186.824 311.15 187.864 311.69 188.804 311.78C189.624 311.85 190.294 311.64 191.024 311.28C191.074 311.25 191.104 311.24 191.134 311.22C191.174 311.21 191.204 311.21 191.274 311.19C191.524 311.13 191.784 311.08 192.034 311.01C194.014 310.48 196.004 308.32 194.754 306.2C193.444 303.97 190.574 304.21 188.774 305.61C187.274 306.78 186.244 308.12 186.624 310.12Z" fill="#501782"/>
            <path d="M192.773 291.32C192.923 292.24 194.053 292.71 194.863 292.51C194.883 292.51 194.883 292.51 194.893 292.5C194.973 292.5 195.053 292.5 195.133 292.5C195.103 292.5 196.363 292.28 196.413 292.26C196.863 292.2 197.273 292.11 197.683 291.9C198.103 291.68 198.393 291.35 198.703 291.01C199.493 290.15 199.713 288.53 198.703 287.71C197.993 287.13 197.353 286.71 196.363 286.7C195.343 286.69 194.563 287.18 193.833 287.82C192.753 288.76 192.543 289.97 192.773 291.32Z" fill="#501782"/>
            <path d="M176.703 293.97C176.943 294.08 177.173 294.19 177.413 294.29C178.233 294.66 178.983 294.85 179.893 294.61C180.163 294.54 180.423 294.43 180.693 294.34C181.783 293.96 182.773 293.18 183.043 291.99C183.243 291.11 183.173 290.19 182.703 289.4C182.273 288.67 181.503 288.08 180.693 287.85C179.433 287.5 178.383 287.94 177.413 288.72C176.743 289.26 176.093 289.83 175.933 290.74C175.873 291.06 175.843 291.4 175.803 291.72C175.683 292.53 175.843 293.57 176.703 293.97Z" fill="#501782"/>
            <path d="M162.214 301.651C163.294 302.481 164.714 302.321 165.944 302.041C166.304 301.961 166.674 301.891 167.024 301.781C167.894 301.481 168.494 300.971 169.064 300.281C169.884 299.291 170.234 298.131 169.704 296.891C169.184 295.671 168.134 295.121 166.864 294.981C166.124 294.901 165.444 294.901 164.734 295.201C164.244 295.411 163.814 295.661 163.364 295.931C162.314 296.571 161.214 297.461 161.034 298.771C160.854 300.041 161.204 300.871 162.214 301.651Z" fill="#501782"/>
            <path d="M163.014 282.9C163.184 283.47 163.404 283.8 163.774 284.24C164.114 284.66 164.744 284.93 165.354 284.99C165.584 285.05 165.814 285.1 166.094 285.08C166.184 285.08 166.264 285.06 166.344 285.05C166.994 285.1 167.704 284.93 168.224 284.63C168.884 284.25 169.504 283.49 169.674 282.74C169.854 281.93 169.814 281.02 169.354 280.3C168.894 279.59 168.274 279.12 167.464 278.85C166.814 278.63 166.084 278.68 165.434 278.82C165.234 278.86 165.074 278.94 164.874 279.03C164.484 279.16 164.144 279.38 163.854 279.68C163.694 279.89 163.524 280.11 163.364 280.32C163.204 280.56 163.104 280.84 163.024 281.12C162.874 281.66 162.854 282.36 163.014 282.9Z" fill="#501782"/>
            <path d="M177.573 274.431C178.183 275.541 179.583 275.571 180.433 274.851C180.443 274.851 180.463 274.851 180.473 274.851C181.183 274.751 181.663 274.401 182.203 273.961C182.023 274.101 181.843 274.241 181.663 274.381C181.753 274.321 181.833 274.271 181.923 274.221C182.833 273.751 183.283 272.611 183.153 271.641C183.093 271.171 182.933 270.791 182.643 270.421C182.333 270.021 181.823 269.571 181.303 269.491C180.403 269.351 179.553 269.271 178.713 269.761C178.003 270.181 177.533 270.931 177.293 271.701C177.023 272.611 177.123 273.591 177.573 274.431Z" fill="#501782"/>
        </g>
    </g>
    <defs>
        <clipPath id="clip0_827_111">
            <rect width="387" height="803" fill="white"/>
        </clipPath>
    </defs>
</svg>
